<?xml version="1.0" standalone="no"?><!DOCTYPE svg PUBLIC "-//W3C//DTD SVG 1.1//EN" "http://www.w3.org/Graphics/SVG/1.1/DTD/svg11.dtd"><svg t="1644309645135" class="icon" viewBox="0 0 1024 1024" version="1.1" xmlns="http://www.w3.org/2000/svg" p-id="3826" xmlns:xlink="http://www.w3.org/1999/xlink" width="200" height="200"><defs><style type="text/css"></style></defs><path d="M92.327869 0h469.831344L931.672131 235.603934V1024H92.327869z" fill="#F3F3F3" p-id="3827"></path><path d="M92.327869 0h490.395279L931.672131 218.514885V369.311475H92.327869z" fill="#FDAA02" p-id="3828"></path><path d="M182.557377 251.803279l12.002623-33.053377h55.212066L261.774689 251.803279h23.081967L234.445639 119.959082H209.886426L159.47541 251.803279h23.081967z m60.751738-50.780328H201.022951l20.866098-57.797246h0.738623l20.681443 57.797246zM319.387279 251.803279V119.959082h-21.604722V251.803279h21.604722z" fill="#FFFFFF" p-id="3829"></path><path d="M931.672131 218.514885l-236.023606 106.697443L582.723148 0z" fill="#F37100" p-id="3830"></path><path d="M582.723148 0l131.307016 288.449049L931.672131 218.514885z" fill="#FFD278" p-id="3831"></path><path d="M377.704918 805.770492l26.187541-72.116459h120.462689L550.542689 805.770492h50.360655l-109.987672-287.660066h-53.583738L327.344262 805.770492h50.360656z m132.549246-110.793443H417.993443l45.526032-126.103082h1.611541l45.123148 126.103082z m165.988721 110.793443V518.110426h-47.137574V805.770492h47.137574z" fill="#FFDD9A" p-id="3832"></path></svg>