<?xml version="1.0" standalone="no"?><!DOCTYPE svg PUBLIC "-//W3C//DTD SVG 1.1//EN" "http://www.w3.org/Graphics/SVG/1.1/DTD/svg11.dtd"><svg t="1644331869260" class="icon" viewBox="0 0 1024 1024" version="1.1" xmlns="http://www.w3.org/2000/svg" p-id="9821" xmlns:xlink="http://www.w3.org/1999/xlink" width="200" height="200"><defs><style type="text/css"></style></defs><path d="M354.40128 0c-87.04 0-157.44 70.55872-157.44 157.59872v275.68128H78.72c-21.6576 0-39.36256 17.69984-39.36256 39.36256v236.31872c0 21.6576 17.69984 39.35744 39.36256 39.35744h118.24128v118.08256c0 87.04 70.4 157.59872 157.44 157.59872h472.63744c87.04 0 157.59872-70.55872 157.59872-157.59872V315.0336c0-41.74848-38.9888-81.93024-107.52-149.27872l-29.11744-29.12256L818.87744 107.52C751.5392 38.9888 711.39328 0 669.59872 0H354.4064z m0 78.72h287.20128c28.35456 7.0912 27.99616 42.1376 27.99616 76.8v120.16128c0 21.6576 17.69984 39.35744 39.36256 39.35744h118.07744c39.38816 0 78.87872-0.0256 78.87872 39.36256v512c0 43.32032-35.55328 78.87872-78.87872 78.87872H354.4064c-43.32544 0-78.72-35.5584-78.72-78.87872v-118.08256h393.91744c21.66272 0 39.36256-17.69472 39.36256-39.35744V472.64256c0-21.66272-17.69984-39.36256-39.36256-39.36256H275.68128V157.59872c0-43.32032 35.39456-78.87872 78.72-78.87872z m24.32 427.67872h20.15744l65.28 176.64h-23.04l-19.2-54.71744h-65.28l-19.2 54.71744h-23.04l64.32256-176.64z m-192.96256 0.96256h48c23.04 0 39.04 3.84 48 11.52 9.6 7.04 14.40256 17.92 14.40256 32.64 0 21.76-11.84256 34.56-35.52256 38.4v0.95744c26.88 4.48 40.32 18.24256 40.32 41.28256 0 15.36-5.12 27.83744-15.36 37.43744-9.6 8.96-23.35744 13.44-41.27744 13.44H185.7536V507.36128z m266.88 0h121.92256v20.15744h-49.92v155.52h-22.08256v-155.52h-49.92v-20.15744z m-244.79744 19.2v55.68h29.75744c12.8 0 21.76-2.24256 26.88-6.72256 5.76-5.12 8.64256-12.47744 8.64256-22.07744 0-8.96-3.2-15.68256-9.6-20.16256s-16-6.71744-28.8-6.71744h-26.88z m181.43744 3.84c-1.92 8.96-4.79744 18.23744-8.63744 27.83744l-17.28 50.88256h51.84l-18.24256-50.88256c-3.84-10.88-6.4-20.15744-7.68-27.83744zM207.84128 600.4736v63.36h31.67744c12.8 0 22.08256-2.56 27.84256-7.68 6.4-5.76 9.6-14.08 9.6-24.96 0-10.24-3.2-17.92-9.6-23.04s-16-7.68-28.8-7.68h-30.72z" p-id="9822"></path></svg>