<?xml version="1.0" standalone="no"?><!DOCTYPE svg PUBLIC "-//W3C//DTD SVG 1.1//EN" "http://www.w3.org/Graphics/SVG/1.1/DTD/svg11.dtd"><svg t="1644332041086" class="icon" viewBox="0 0 1024 1024" version="1.1" xmlns="http://www.w3.org/2000/svg" p-id="18913" xmlns:xlink="http://www.w3.org/1999/xlink" width="200" height="200"><defs><style type="text/css"></style></defs><path d="M924 0H100C45 0 0 45 0 100v824c0 55 45 100 100 100h824c55 0 100-45 100-100V100c0-55-45-100-100-100z m55 924c0 14.58-5.75 28.36-16.19 38.81S938.58 979 924 979H100c-14.58 0-28.36-5.75-38.81-16.19S45 938.58 45 924V315h934v609zM45 270V100c0-14.58 5.75-28.36 16.19-38.81C71.64 50.75 85.42 45 100 45h824c14.58 0 28.36 5.75 38.81 16.19C973.25 71.64 979 85.42 979 100v170H45z" fill="#303133" p-id="18914"></path><path d="M157.5 157.5m-22.5 0a22.5 22.5 0 1 0 45 0 22.5 22.5 0 1 0-45 0Z" fill="#303133" p-id="18915"></path><path d="M292.5 157.5m-22.5 0a22.5 22.5 0 1 0 45 0 22.5 22.5 0 1 0-45 0Z" fill="#303133" p-id="18916"></path><path d="M427.5 157.5m-22.5 0a22.5 22.5 0 1 0 45 0 22.5 22.5 0 1 0-45 0Z" fill="#303133" p-id="18917"></path><path d="M321.48 648.04c0-72.79 52.57-115.45 115.18-115.45 31.47 0 56.59 13.42 72.66 28.34l-26.12 28.04c-12.39-10.74-26.79-18.5-45.54-18.5-37.5 0-65.63 28.64-65.63 76.07 0 48.03 25.45 76.97 64.62 76.97 21.09 0 37.84-8.95 51.23-21.78L514 729.18c-20.42 21.18-46.88 32.52-79.02 32.52-62.61 0-113.5-39.98-113.5-113.66zM565.24 692.79h-28.8v-28.34h32.48l5.69-40.87h-30.47v-28.64h34.49l8.37-57.28h28.46l-7.7 57.28h42.19l8.37-57.28h28.46l-7.37 57.28h29.8v28.64H675.4l-5.69 40.87h31.81v28.34h-35.49l-8.71 64.74h-29.47l8.71-64.74h-41.85l-9.04 64.74h-29.13l8.7-64.74z m75.01-28.35l5.69-40.87h-42.19l-5.69 40.87h42.19z" fill="#303133" p-id="18918"></path></svg>