<?xml version="1.0" standalone="no"?><!DOCTYPE svg PUBLIC "-//W3C//DTD SVG 1.1//EN" "http://www.w3.org/Graphics/SVG/1.1/DTD/svg11.dtd"><svg t="1644331970734" class="icon" viewBox="0 0 1024 1024" version="1.1" xmlns="http://www.w3.org/2000/svg" p-id="13892" xmlns:xlink="http://www.w3.org/1999/xlink" width="200" height="200"><defs><style type="text/css"></style></defs><path d="M829.44 95.232v66.56H712.704V95.232H311.296v66.56H194.56V95.232H61.44v183.296h901.12V95.232z" fill="#F44336" p-id="13893"></path><path d="M194.56 278.528H61.44v716.8h901.12v-716.8H311.296z" fill="#CFD8DC" p-id="13894"></path><path d="M194.56 28.672h116.736v133.12H194.56z m518.144 0H829.44v133.12H712.704z" fill="#E8E8E8" p-id="13895"></path><path d="M194.56 407.552h115.712V522.24H194.56V407.552z m173.056 0h115.712V522.24H367.616V407.552z m173.056 0h115.712V522.24H540.672V407.552z m173.056 0H829.44V522.24H713.728V407.552zM194.56 580.608h115.712V696.32H194.56V580.608z m173.056 0h115.712V696.32H367.616V580.608z m173.056 0h115.712V696.32H540.672V580.608z m173.056 0H829.44V696.32H713.728V580.608zM194.56 752.64h115.712v115.712H194.56V752.64z m173.056 0h115.712v115.712H367.616V752.64z m173.056 0h115.712v115.712H540.672V752.64z m173.056 0H829.44v115.712H713.728V752.64z" fill="#90A4AE" p-id="13896"></path></svg>