<?xml version="1.0" standalone="no"?><!DOCTYPE svg PUBLIC "-//W3C//DTD SVG 1.1//EN" "http://www.w3.org/Graphics/SVG/1.1/DTD/svg11.dtd"><svg t="1644309605631" class="icon" viewBox="0 0 1024 1024" version="1.1" xmlns="http://www.w3.org/2000/svg" p-id="1877" xmlns:xlink="http://www.w3.org/1999/xlink" width="200" height="200"><defs><style type="text/css"></style></defs><path d="M92.327869 0h469.831344L931.672131 235.603934V1024H92.327869z" fill="#F3F3F3" p-id="1878"></path><path d="M92.327869 0h490.395279L931.672131 218.514885V369.311475H92.327869z" fill="#9FBED0" p-id="1879"></path><path d="M931.672131 218.514885l-236.023606 106.697443L582.723148 0z" fill="#7FA7B9" p-id="1880"></path><path d="M582.723148 0l131.307016 288.449049L931.672131 218.514885z" fill="#B1DAE0" p-id="1881"></path><path d="M230.013902 254.388459c14.268852 0 26.472918-4.062426 36.561836-12.187279 10.827541-8.611672 17.726951-20.681443 20.681442-36.192524h-21.050754c-2.58518 10.088918-7.016918 17.609443-13.295213 22.528-6.043279 4.549246-13.731672 6.832262-23.081967 6.832262-14.403148 0-25.046033-4.498885-31.945443-13.479869-6.278295-8.376656-9.417443-20.312131-9.417442-35.823213 0-15.276066 3.189508-27.077246 9.602098-35.453902 6.882623-9.48459 17.290492-14.218492 31.20682-14.218491 9.350295 0 16.92118 1.964066 22.712655 5.908983 6.043279 4.062426 10.156066 10.407869 12.371935 19.019541h21.050754c-2.098361-13.547016-7.889836-24.122754-17.357639-31.760787-9.97141-8.124852-22.779803-12.187279-38.408394-12.187278-21.168262 0-37.233311 6.94977-48.195147 20.866098-9.736393 12.06977-14.587803 28.000525-14.587804 47.825836 0 20.060328 4.683541 35.940721 14.033836 47.64118 10.827541 13.782033 27.194754 20.681443 49.118427 20.681443z m126.304524 0c16.736525 0 29.796721-3.390951 39.147017-10.156066 9.232787-6.882623 13.84918-16.249705 13.84918-28.067672 0-12.187279-5.724328-21.655082-17.172984-28.436983-5.65718-3.323803-17.172984-7.638033-34.530623-12.925902-12.06977-3.810623-19.573508-6.530098-22.528-8.124852-6.160787-3.189508-9.232787-7.688393-9.232786-13.479869 0-6.395803 2.702689-10.961836 8.124852-13.664525 4.31423-2.350164 10.642885-3.508459 19.019541-3.508459 9.853902 0 17.122623 1.77941 21.789377 5.355017 4.918557 3.575607 8.309508 9.417443 10.156066 17.542295h21.420065c-1.342951-14.403148-6.647607-25.046033-15.880393-31.945443-8.611672-6.395803-20.74859-9.602098-36.377181-9.602098-14.268852 0-25.969311 3.189508-35.08459 9.602098-9.853902 6.530098-14.772459 15.695738-14.772459 27.513705 0 11.700459 5.036066 20.563934 15.141771 26.590426 3.810623 2.215869 13.916328 5.908984 30.283541 11.079344 14.151344 4.31423 22.712656 7.201574 25.667147 8.67882 8.242361 4.062426 12.371934 9.602098 12.371935 16.619016 0 5.287869-2.836984 9.669246-8.494164 13.110558-5.65718 3.189508-13.295213 4.801049-22.897312 4.801049-10.710033 0-18.717377-1.913705-24.005246-5.724328-5.65718-4.196721-9.232787-11.331148-10.710032-21.420065h-21.420066c0.856131 16.736525 6.882623 28.990951 18.096262 36.746491 9.115279 6.278295 21.789377 9.417443 38.039082 9.417443z m120.210885 0c16.736525 0 29.796721-3.390951 39.147017-10.156066 9.232787-6.882623 13.84918-16.249705 13.84918-28.067672 0-12.187279-5.724328-21.655082-17.172983-28.436983-5.65718-3.323803-17.172984-7.638033-34.530623-12.925902-12.06977-3.810623-19.573508-6.530098-22.528-8.124852-6.160787-3.189508-9.232787-7.688393-9.232787-13.479869 0-6.395803 2.702689-10.961836 8.124852-13.664525 4.31423-2.350164 10.642885-3.508459 19.019541-3.508459 9.853902 0 17.122623 1.77941 21.789377 5.355017 4.918557 3.575607 8.309508 9.417443 10.156066 17.542295h21.420065c-1.342951-14.403148-6.647607-25.046033-15.880393-31.945443-8.611672-6.395803-20.74859-9.602098-36.37718-9.602098-14.268852 0-25.969311 3.189508-35.084591 9.602098-9.853902 6.530098-14.772459 15.695738-14.772459 27.513705 0 11.700459 5.036066 20.563934 15.141771 26.590426 3.810623 2.215869 13.916328 5.908984 30.283541 11.079344 14.151344 4.31423 22.712656 7.201574 25.667147 8.67882 8.242361 4.062426 12.371934 9.602098 12.371935 16.619016 0 5.287869-2.836984 9.669246-8.494164 13.110558-5.65718 3.189508-13.295213 4.801049-22.897312 4.801049-10.710033 0-18.717377-1.913705-24.005245-5.724328-5.65718-4.196721-9.232787-11.331148-10.710033-21.420065h-21.420066c0.856131 16.736525 6.882623 28.990951 18.096263 36.746491 9.115279 6.278295 21.789377 9.417443 38.039081 9.417443z" fill="#FFFFFF" p-id="1882"></path><path d="M341.109508 833.972459v-21.151475H322.308197c-14.772459 0-22.158689-8.175213-22.158689-24.508853v-70.16918c0-19.926033-9.182426-33.57377-27.530492-40.96 18.348066-7.168 27.530492-20.815738 27.530492-40.96v-69.833443c0-16.568656 7.38623-24.84459 22.158689-24.84459h18.801311V520.393443h-23.165901c-13.882754 0-24.508852 4.36459-31.895082 13.09377-7.168 7.839475-10.743607 19.019541-10.743607 33.573771v68.154754c0 9.853902-2.131934 17.240131-6.379016 22.158688-4.482098 5.153574-12.976262 8.057705-25.516066 8.729181V688.262295c12.304787 0.453246 20.815738 3.357377 25.516066 8.72918 4.247082 4.918557 6.379016 12.304787 6.379016 22.158689v68.490492c0 14.319213 3.575607 25.398557 10.743607 33.238033 7.38623 8.72918 18.012328 13.09377 31.895082 13.09377h23.165901zM703.034754 833.972459c13.647738 0 24.290623-4.36459 31.895082-13.09377 7.168-8.275934 10.743607-19.355279 10.743607-33.238033v-68.490492c0-10.290361 2.131934-17.67659 6.379016-22.158689 4.700328-5.590033 13.211279-8.510951 25.516066-8.72918v-22.158688c-12.304787-0.671475-20.815738-3.474885-25.516066-8.393443-4.247082-4.918557-6.379016-12.422295-6.379016-22.494426v-68.154754c0-14.100984-3.575607-25.297836-10.743607-33.573771-7.604459-8.72918-18.247344-13.09377-31.895082-13.09377H679.868852v21.151475h18.801312c14.772459 0 22.158689 8.275934 22.158688 24.84459v69.833443c0 20.362492 9.182426 34.027016 27.530492 40.96-18.348066 7.38623-27.530492 21.033967-27.530492 40.96v70.16918c0 16.333639-7.38623 24.508852-22.158688 24.508853H679.868852v21.151475h23.165902z" fill="#B3BFC9" p-id="1883"></path><path d="M428.065574 747.687869h33.57377v33.57377h-33.57377zM495.213115 747.687869h33.57377v33.57377h-33.57377zM562.360656 747.687869h33.57377v33.57377h-33.57377z" fill="#B3BFC9" p-id="1884"></path></svg>