<?xml version="1.0" standalone="no"?><!DOCTYPE svg PUBLIC "-//W3C//DTD SVG 1.1//EN" "http://www.w3.org/Graphics/SVG/1.1/DTD/svg11.dtd"><svg t="1644309634101" class="icon" viewBox="0 0 1024 1024" version="1.1" xmlns="http://www.w3.org/2000/svg" p-id="3066" xmlns:xlink="http://www.w3.org/1999/xlink" width="200" height="200"><defs><style type="text/css"></style></defs><path d="M92.327869 0h469.831344L931.672131 235.603934V1024H92.327869z" fill="#F3F3F3" p-id="3067"></path><path d="M377.704918 688.262295a134.295082 134.295082 0 1 0 268.590164 0 134.295082 134.295082 0 0 0-268.590164 0z" fill="#E4E4E4" p-id="3068"></path><path d="M717.807213 635.282885h-20.983606c-23.300197 0-34.950295-27.966951-18.633443-44.30059l13.983475-13.983475c9.333508-9.333508 9.333508-25.650361 0-37.300459l-37.300459-37.300459c-9.333508-9.333508-25.650361-9.333508-37.300459 0l-14.000262 13.983475c-16.316852 16.316852-44.30059 4.666754-44.30059-18.650229v-18.65023c0-14.000262-11.650098-25.650361-25.633574-25.650361h-51.300721c-13.983475 0-25.650361 11.650098-25.650361 25.650361v20.983607c0 23.316984-27.966951 34.967082-44.30059 18.633442l-11.650098-16.300065c-9.333508-9.333508-25.650361-9.333508-37.300459 0l-37.300459 37.300459c-9.333508 9.316721-9.333508 25.650361 0 37.300459l13.983475 13.983475c16.316852 16.333639 4.666754 44.317377-16.316852 44.317377h-20.983607c-14.000262 0-25.650361 11.650098-25.650361 25.633574v51.300721c0 13.983475 11.650098 25.633574 25.650361 25.633574h20.983607c23.316984 0 34.967082 27.983738 18.633442 44.317377l-13.983475 13.983475c-9.316721 9.316721-9.316721 25.633574 0 37.300459l37.317246 37.300459c9.316721 9.333508 25.633574 9.333508 37.300459 0l13.983475-13.983475c16.316852-16.333639 44.317377-4.666754 44.317377 18.633443v18.667016c0 13.983475 11.650098 25.650361 25.633574 25.650361h51.283934c14.000262 0 25.650361-11.666885 25.650361-25.650361v-20.983606c0-23.316984 27.983738-34.967082 44.317377-18.65023l13.966689 13.983475c9.333508 9.333508 25.650361 9.333508 37.317245 0l37.300459-37.300459c9.316721-9.333508 9.316721-25.650361 0-37.300459l-13.983475-14.000262c-16.333639-16.316852-4.666754-44.30059 18.633443-44.30059H720.157377c13.983475 0 25.650361-11.650098 25.650361-25.633574v-51.300721c-2.350164-11.650098-14.000262-23.316984-27.983738-23.316984zM510.321311 837.665574c-84.337311 0-151.081967-66.761443-151.081967-151.081967 0-84.337311 66.744656-151.081967 151.081967-151.081968 84.320525 0 151.081967 66.744656 151.081968 151.081968 0 84.320525-66.761443 151.081967-151.081968 151.081967z" fill="#A7A7A7" p-id="3069"></path><path d="M92.327869 0h490.395279L931.672131 218.514885V369.311475H92.327869z" fill="#484848" p-id="3070"></path><path d="M931.672131 218.514885l-236.023606 106.697443L582.723148 0z" fill="#0E0E0D" p-id="3071"></path><path d="M582.723148 0l131.307016 288.449049L931.672131 218.514885z" fill="#5E5E5E" p-id="3072"></path><path d="M203.809574 251.803279c21.302557 0 37.485115-5.908984 48.564459-17.726951 10.575738-11.331148 15.880393-27.396197 15.880393-48.195148 0-20.933246-5.287869-36.998295-15.880393-48.195147-11.079344-11.817967-27.261902-17.726951-48.564459-17.726951H155.614426V251.803279h48.195148z m-4.062426-18.465574H177.219148V138.424656h22.528c16.501508 0 28.504131 3.760262 36.007868 11.264 7.38623 7.38623 11.079344 19.456 11.079345 36.192524 0 16.249705-3.693115 28.252328-11.079345 36.007869-7.638033 7.638033-19.640656 11.448656-36.007868 11.448656zM381.263738 251.803279v-18.465574h-71.277115V119.959082H288.566557V251.803279h92.697181z m109.316196 0v-18.465574h-71.277114V119.959082h-21.420066V251.803279h92.69718z" fill="#FFFFFF" p-id="3073"></path><path d="M512 688.262295m-100.721311 0a100.721311 100.721311 0 1 0 201.442622 0 100.721311 100.721311 0 1 0-201.442622 0Z" fill="#F9F9F9" p-id="3074"></path></svg>