<?xml version="1.0" standalone="no"?><!DOCTYPE svg PUBLIC "-//W3C//DTD SVG 1.1//EN" "http://www.w3.org/Graphics/SVG/1.1/DTD/svg11.dtd"><svg t="1644309640478" class="icon" viewBox="0 0 1024 1024" version="1.1" xmlns="http://www.w3.org/2000/svg" p-id="3522" xmlns:xlink="http://www.w3.org/1999/xlink" width="200" height="200"><defs><style type="text/css"></style></defs><path d="M92.327869 0h469.831344L931.672131 235.603934V1024H92.327869z" fill="#F3F3F3" p-id="3523"></path><path d="M465.332459 676.192525h69.447344l66.711082 230.013901 76.04459-230.013901h68.708722l75.591344 230.013901 67.718295-230.013901H931.672131V772.196721L859.287082 1024h-64.881312L713.106885 772.179934 630.968656 1024h-63.958033z" fill="#C2E6FE" p-id="3524"></path><path d="M422.240525 438.137705a6.714754 6.714754 0 0 1 1.34295 13.295213l-1.34295 0.134295H193.04918a6.714754 6.714754 0 0 1-1.34295-13.295213L193.04918 438.137705h229.191345zM422.240525 477.167213a6.714754 6.714754 0 0 1 1.34295 13.295213l-1.34295 0.134295H193.04918a6.714754 6.714754 0 0 1-1.34295-13.295213l1.34295-0.134295h229.191345zM834.07318 524.758033a6.714754 6.714754 0 0 1 1.342951 13.278426l-1.342951 0.134295H193.04918a6.714754 6.714754 0 0 1-1.34295-13.278426l1.34295-0.151082h641.024zM834.07318 566.725246a6.714754 6.714754 0 0 1 1.342951 13.278426l-1.342951 0.134295H193.04918a6.714754 6.714754 0 0 1-1.34295-13.278426l1.34295-0.151082h641.024zM834.07318 617.085902a6.714754 6.714754 0 0 1 1.342951 13.278426l-1.342951 0.134295H193.04918a6.714754 6.714754 0 0 1-1.34295-13.278426l1.34295-0.151082h641.024z" fill="#E9E9E9" p-id="3525"></path><path d="M92.327869 0h490.395279L931.672131 218.514885V369.311475H92.327869z" fill="#2882C5" p-id="3526"></path><path d="M931.672131 218.514885l-236.023606 106.697443L582.723148 0z" fill="#0E6AAC" p-id="3527"></path><path d="M582.723148 0l131.307016 288.449049L931.672131 218.514885z" fill="#3699E2" p-id="3528"></path><path d="M203.809574 251.803279c21.302557 0 37.485115-5.908984 48.564459-17.726951 10.575738-11.331148 15.880393-27.396197 15.880393-48.195148 0-20.933246-5.287869-36.998295-15.880393-48.195147-11.079344-11.817967-27.261902-17.726951-48.564459-17.726951H155.614426V251.803279h48.195148z m-4.062426-18.465574H177.219148V138.424656h22.528c16.501508 0 28.504131 3.760262 36.007868 11.264 7.38623 7.38623 11.079344 19.456 11.079345 36.192524 0 16.249705-3.693115 28.252328-11.079345 36.007869-7.638033 7.638033-19.640656 11.448656-36.007868 11.448656z m147.355278 21.050754c20.194623 0 36.075016-6.462951 47.641181-19.388852 11.079344-12.422295 16.619016-28.739148 16.619016-48.933771 0-20.429639-5.539672-36.813639-16.619016-49.118426-11.582951-13.04341-27.446557-19.573508-47.641181-19.573508-20.429639 0-36.310033 6.580459-47.64118 19.758164-10.961836 12.422295-16.434361 28.739148-16.434361 48.93377 0 20.060328 5.472525 36.310033 16.434361 48.749115 11.582951 13.04341 27.446557 19.573508 47.64118 19.573508z m0-19.019541c-13.782033 0-24.374557-4.549246-31.760787-13.664525-7.134426-8.72918-10.710033-20.614295-10.710032-35.638557 0-15.14177 3.575607-27.077246 10.710032-35.823213 7.638033-9.232787 18.21377-13.84918 31.760787-13.84918 13.782033 0 24.30741 4.36459 31.576131 13.110557 7.268721 8.980984 10.894689 21.168262 10.894689 36.561836s-3.625967 27.446557-10.894689 36.192525c-7.38623 8.72918-17.911607 13.110557-31.576131 13.110557z m142.184918 19.019541c14.268852 0 26.472918-4.062426 36.561836-12.187279 10.827541-8.611672 17.726951-20.681443 20.681443-36.192524h-21.050754c-2.58518 10.088918-7.016918 17.609443-13.295213 22.528-6.043279 4.549246-13.731672 6.832262-23.081967 6.832262-14.403148 0-25.046033-4.498885-31.945443-13.479869-6.278295-8.376656-9.417443-20.312131-9.417443-35.823213 0-15.276066 3.189508-27.077246 9.602099-35.453902 6.882623-9.48459 17.290492-14.218492 31.206819-14.218491 9.350295 0 16.92118 1.964066 22.712656 5.908983 6.043279 4.062426 10.156066 10.407869 12.371934 19.019541h21.050755c-2.098361-13.547016-7.889836-24.122754-17.35764-31.760787-9.97141-8.124852-22.779803-12.187279-38.408393-12.187278-21.168262 0-37.233311 6.94977-48.195148 20.866098-9.736393 12.06977-14.587803 28.000525-14.587803 47.825836 0 20.060328 4.683541 35.940721 14.033836 47.64118 10.827541 13.782033 27.194754 20.681443 49.118426 20.681443z" fill="#FFFFFF" p-id="3529"></path></svg>