<?xml version="1.0" standalone="no"?><!DOCTYPE svg PUBLIC "-//W3C//DTD SVG 1.1//EN" "http://www.w3.org/Graphics/SVG/1.1/DTD/svg11.dtd"><svg t="1644309614950" class="icon" viewBox="0 0 1024 1024" version="1.1" xmlns="http://www.w3.org/2000/svg" p-id="2325" xmlns:xlink="http://www.w3.org/1999/xlink" width="200" height="200"><defs><style type="text/css"></style></defs><path d="M92.327869 0h469.831344L931.672131 235.603934V1024H92.327869z" fill="#F3F3F3" p-id="2326"></path><path d="M92.327869 0h490.395279L931.672131 218.514885V369.311475H92.327869z" fill="#F29F29" p-id="2327"></path><path d="M270.638164 251.803279v-18.465574H194.006033v-39.885639h69.061246v-18.465574H194.006033V138.424656h73.492983v-18.465574H172.401311V251.803279h98.236853z m41.916852 0v-50.595672h32.684066c32.130098 0 48.195148-13.597377 48.195148-40.808918 0-26.959738-15.947541-40.439607-47.825837-40.439607h-54.658098V251.803279h21.604721z m31.391476-69.061246h-31.391476v-44.317377h31.391476c9.602098 0 16.551869 1.729049 20.866098 5.17036 4.549246 3.441311 6.832262 9.048131 6.832262 16.803673 0 7.889836-2.215869 13.597377-6.647606 17.172983-4.549246 3.441311-11.582951 5.170361-21.050754 5.170361z m116.702426 71.646426c16.736525 0 29.796721-3.390951 39.147016-10.156066 9.232787-6.882623 13.84918-16.249705 13.849181-28.067672 0-12.187279-5.724328-21.655082-17.172984-28.436983-5.65718-3.323803-17.172984-7.638033-34.530623-12.925902-12.06977-3.810623-19.573508-6.530098-22.528-8.124852-6.160787-3.189508-9.232787-7.688393-9.232787-13.479869 0-6.395803 2.702689-10.961836 8.124853-13.664525 4.31423-2.350164 10.642885-3.508459 19.019541-3.508459 9.853902 0 17.122623 1.77941 21.789377 5.355017 4.918557 3.575607 8.309508 9.417443 10.156065 17.542295h21.420066c-1.342951-14.403148-6.647607-25.046033-15.880393-31.945443-8.611672-6.395803-20.74859-9.602098-36.377181-9.602098-14.268852 0-25.969311 3.189508-35.08459 9.602098-9.853902 6.530098-14.772459 15.695738-14.772459 27.513705 0 11.700459 5.036066 20.563934 15.14177 26.590426 3.810623 2.215869 13.916328 5.908984 30.283541 11.079344 14.151344 4.31423 22.712656 7.201574 25.667148 8.67882 8.242361 4.062426 12.371934 9.602098 12.371934 16.619016 0 5.287869-2.836984 9.669246-8.494163 13.110558-5.65718 3.189508-13.295213 4.801049-22.897312 4.801049-10.710033 0-18.717377-1.913705-24.005246-5.724328-5.65718-4.196721-9.232787-11.331148-10.710033-21.420065h-21.420065c0.856131 16.736525 6.882623 28.990951 18.096262 36.746491 9.115279 6.278295 21.789377 9.417443 38.039082 9.417443z" fill="#FFFFFF" p-id="2328"></path><path d="M931.672131 218.514885l-236.023606 106.697443L582.723148 0z" fill="#A8670B" p-id="2329"></path><path d="M582.723148 0l131.307016 288.449049L931.672131 218.514885z" fill="#FFC26B" p-id="2330"></path><path d="M740.704525 487.15541v16.786885H284.94059v-16.786885z" fill="#E6E6E6" p-id="2331"></path><path d="M512 495.213115c151.165902 0 274.062689 121.117377 276.933246 271.611803l0.050361 5.371803h-16.786886c0-143.695738-116.500984-260.196721-260.196721-260.196721-141.933115 0-257.309377 113.647213-260.146361 254.892066L251.803279 772.196721h-16.786886C235.016393 619.217836 359.021115 495.213115 512 495.213115z" fill="#E6E6E6" p-id="2332"></path><path d="M478.42623 470.032787h67.14754v67.147541h-67.14754z" fill="#AA5743" p-id="2333"></path><path d="M235.016393 763.803279m-25.180327 0a25.180328 25.180328 0 1 0 50.360655 0 25.180328 25.180328 0 1 0-50.360655 0Z" fill="#AA5743" p-id="2334"></path><path d="M788.983607 763.803279m-25.180328 0a25.180328 25.180328 0 1 0 50.360655 0 25.180328 25.180328 0 1 0-50.360655 0Z" fill="#AA5743" p-id="2335"></path></svg>