<?xml version="1.0" standalone="no"?><!DOCTYPE svg PUBLIC "-//W3C//DTD SVG 1.1//EN" "http://www.w3.org/Graphics/SVG/1.1/DTD/svg11.dtd"><svg t="1644331916901" class="icon" viewBox="0 0 1024 1024" version="1.1" xmlns="http://www.w3.org/2000/svg" p-id="11428" xmlns:xlink="http://www.w3.org/1999/xlink" width="200" height="200"><defs><style type="text/css"></style></defs><path d="M960.055 1.012 65.808 1.012c-35.278 0-63.875 28.571-63.875 63.862l0 894.221c0 35.297 28.597 63.894 63.875 63.894L960.055 1022.989c35.278 0 63.875-28.597 63.875-63.894l0-894.221C1023.929 29.583 995.333 1.012 960.055 1.012zM960.055 959.095 65.808 959.095l0-894.221L960.055 64.874 960.055 959.095zM157.627 254.764l127.743 0c17.636 0 31.937-14.289 31.937-31.918 0-17.661-14.302-31.95-31.937-31.95L157.627 190.896c-17.642 0-31.944 14.289-31.944 31.95C125.683 240.475 139.984 254.764 157.627 254.764zM413.119 254.764l191.624 0c17.636 0 31.937-14.289 31.937-31.918 0-17.661-14.302-31.95-31.937-31.95L413.119 190.896c-17.636 0-31.937 14.289-31.937 31.95C381.182 240.475 395.483 254.764 413.119 254.764zM732.493 254.764l127.75 0c17.642 0 31.937-14.289 31.937-31.918 0-17.661-14.295-31.95-31.937-31.95l-127.75 0c-17.636 0-31.937 14.289-31.937 31.95C700.556 240.475 714.857 254.764 732.493 254.764zM577.954 397.007c-4.969-7.2-12.964-12.023-21.867-14.003-2.676-0.812-5.498-1.257-8.42-1.257l-71.336 0c-1.266 0-2.51 0.091-3.736 0.25-12.66-0.038-24.991 5.338-31.774 15.01L258.325 785.071c-10.086 14.372-4.101 32.787 13.363 41.065 17.451 8.31 39.775 3.379 49.854-10.993l53.242-113.212 268.194 0 52.422 113.212c9.926 14.372 31.905 19.303 49.094 10.993 17.189-8.278 23.078-26.693 13.152-41.065L577.954 397.007zM404.848 638.006l89.793-190.93 30.328 0 88.41 190.93L404.848 638.006z" p-id="11429"></path></svg>