<?xml version="1.0" standalone="no"?><!DOCTYPE svg PUBLIC "-//W3C//DTD SVG 1.1//EN" "http://www.w3.org/Graphics/SVG/1.1/DTD/svg11.dtd"><svg t="1644331934588" class="icon" viewBox="0 0 1024 1024" version="1.1" xmlns="http://www.w3.org/2000/svg" p-id="12195" xmlns:xlink="http://www.w3.org/1999/xlink" width="200" height="200"><defs><style type="text/css"></style></defs><path d="M938.666667 597.333333h-85.333334v341.333334h-85.333333V597.333333h-85.333333v-85.333333h256z m-597.333334 0v-85.333333H85.333333v426.666667h85.333334v-170.666667h170.666666v-85.333333H170.666667v-85.333334zM725.333333 85.333333H85.333333v384h85.333334V170.666667h519.253333L853.333333 334.08V469.333333h85.333334v-170.666666zM512 597.333333a42.666667 42.666667 0 0 0-42.666667 42.666667v170.666667a42.666667 42.666667 0 0 0 85.333334 0v-170.666667a42.666667 42.666667 0 0 0-42.666667-42.666667m0-85.333333a128 128 0 0 1 128 128v170.666667a128 128 0 0 1-256 0v-170.666667a128 128 0 0 1 128-128z" p-id="12196"></path></svg>