<?xml version="1.0" standalone="no"?><!DOCTYPE svg PUBLIC "-//W3C//DTD SVG 1.1//EN" "http://www.w3.org/Graphics/SVG/1.1/DTD/svg11.dtd"><svg t="1644312530796" class="icon" viewBox="0 0 1024 1024" version="1.1" xmlns="http://www.w3.org/2000/svg" p-id="4780" xmlns:xlink="http://www.w3.org/1999/xlink" width="200" height="200"><defs><style type="text/css"></style></defs><path d="M832.2 127.9v766H192.7v-766h639.5m0-64H192.7c-35.3 0-64 28.7-64 64v766c0 35.3 28.7 64 64 64h639.5c35.3 0 64-28.7 64-64v-766c0-35.4-28.7-64-64-64z" fill="#A3D1C1" p-id="4781"></path><path d="M733.039 824.168v-32h97.9v32z" fill="#8C98A6" p-id="4782"></path><path d="M896.2 958.3H522.1v-176c0-35.3 28.7-64 64-64h310.1c35.3 0 64 28.7 64 64v112c0 35.4-28.7 64-64 64z" fill="#83B29E" p-id="4783"></path><path d="M699.3 780.4c10.2 8 16.6 19.8 19.2 35.8h-23.6c-2-9.2-6.4-16-12.8-20.6-6.6-4.6-15.4-6.8-26.2-6.8-13.4 0-24 4.4-31.8 13.6-8.6 9.6-12.8 23-12.8 40.6 0 16.8 3.8 29.8 11.4 38.8 8.2 9.6 21 14.4 38.4 14.4 6.8 0 13.2-0.8 19.2-2.4 5.6-1.6 10.6-3.8 15.4-6.6v-29.4h-37.8v-20h61.2v60.4c-7.6 6-16.2 10.4-26 13.6-10.4 3.2-21.8 4.8-34.6 4.8-22.8 0-40.4-7.2-53-21.6-11.8-13.4-17.6-30.8-17.6-52 0-21.4 5.8-39 17.6-52.8 12.4-14.8 29.2-22 50.4-22 18.4 0 32.8 4 43.4 12.2zM768.5 771v142.8h-23.4V771h23.4zM893.9 771v20h-74v39.6h69.8v20h-69.8v63.2h-23.4V771h97.4z" fill="#FFFFFF" p-id="4784"></path><path d="M618.2 396.9m-104.9 0a104.9 104.9 0 1 0 209.8 0 104.9 104.9 0 1 0-209.8 0Z" fill="#E4EDE9" p-id="4785"></path><path d="M513.3 396.9m-104.9 0a104.9 104.9 0 1 0 209.8 0 104.9 104.9 0 1 0-209.8 0Z" fill="#C7DDD3" p-id="4786"></path><path d="M408.4 396.9m-104.9 0a104.9 104.9 0 1 0 209.8 0 104.9 104.9 0 1 0-209.8 0Z" fill="#A3D1C1" p-id="4787"></path></svg>