<?xml version="1.0" standalone="no"?><!DOCTYPE svg PUBLIC "-//W3C//DTD SVG 1.1//EN" "http://www.w3.org/Graphics/SVG/1.1/DTD/svg11.dtd"><svg t="1644309601948" class="icon" viewBox="0 0 1024 1024" version="1.1" xmlns="http://www.w3.org/2000/svg" p-id="1728" xmlns:xlink="http://www.w3.org/1999/xlink" width="200" height="200"><defs><style type="text/css"></style></defs><path d="M92.327869 0h469.831344L931.672131 235.603934V1024H92.327869z" fill="#F3F3F3" p-id="1729"></path><path d="M92.327869 0h490.395279L931.672131 218.514885V369.311475H92.327869z" fill="#7BA355" p-id="1730"></path><path d="M931.672131 218.514885l-236.023606 106.697443L582.723148 0z" fill="#4A7323" p-id="1731"></path><path d="M582.723148 0l131.307016 288.449049L931.672131 218.514885z" fill="#A2CA72" p-id="1732"></path><path d="M203.054164 254.388459c15.276066 0 26.40577-3.87777 33.422688-11.633311 6.278295-7.38623 9.417443-18.583082 9.417443-33.607345V119.959082H224.289574v88.450098c0 9.350295-1.661902 16.182557-4.985705 20.496787-3.323803 4.31423-8.611672 6.462951-15.880394 6.462951-13.04341 0-19.573508-7.570885-19.573508-22.712656v-4.062426H162.245246v4.247082c0 12.925902 3.508459 23.081967 10.525377 30.468197 6.882623 7.38623 16.988328 11.079344 30.283541 11.079344zM293.35082 251.803279v-50.595672h32.684065c32.130098 0 48.195148-13.597377 48.195148-40.808918 0-26.959738-15.947541-40.439607-47.825836-40.439607h-54.658099V251.803279h21.604722z m31.391475-69.061246h-31.391475v-44.317377h31.391475c9.602098 0 16.551869 1.729049 20.866098 5.17036 4.549246 3.441311 6.832262 9.048131 6.832263 16.803673 0 7.889836-2.215869 13.597377-6.647607 17.172983-4.549246 3.441311-11.582951 5.170361-21.050754 5.170361z m127.597115 71.646426c11.700459 0 22.343344-1.477246 31.945442-4.431738a74.198033 74.198033 0 0 0 24.005246-12.55659V181.634098h-56.504655v18.465574h34.899934v27.144394a57.629377 57.629377 0 0 1-14.218492 6.093639c-5.539672 1.477246-11.448656 2.215869-17.726951 2.215869-15.997902 0-27.815869-4.431738-35.453901-13.295213-7.016918-8.376656-10.525377-20.312131-10.525377-35.823213 0-16.249705 3.944918-28.739148 11.817967-37.485115 7.134426-8.376656 16.92118-12.55659 29.360262-12.55659 10.088918 0 18.16341 2.098361 24.189902 6.278295 6.043279 4.31423 9.97141 10.642885 11.817967 19.019541h21.789377c-2.350164-14.654951-8.242361-25.667148-17.726951-33.053377-9.736393-7.503738-23.081967-11.264-40.070295-11.264-19.691016 0-35.202098 6.765115-46.533246 20.312131-10.827541 12.674098-16.249705 28.923803-16.249705 48.749115 0 19.691016 5.422164 35.705705 16.249705 48.010491 11.700459 13.295213 28.000525 19.94282 48.933771 19.94282z" fill="#FFFFFF" p-id="1733"></path><path d="M209.836066 453.245902h604.327868v402.885246H209.836066z" fill="#C1CDA2" p-id="1734"></path><path d="M243.409836 486.819672v273.340853c24.592787-26.976525 59.92918-40.456393 106.025967-40.456394 46.08 0 105.304131 19.069902 177.672394 57.243279 26.573639 13.79882 65.586361-0.671475 117.038164-43.444459 51.451803-42.756197 95.181639-53.550164 131.206295-32.398689V486.819672H243.409836z" fill="#CDDBB7" p-id="1735"></path><path d="M243.409836 486.819672v68.82623c42.940852-2.870557 87.929705 19.137049 134.966557 66.039606 47.053639 46.902557 101.493508 63.454426 163.336394 49.689181l91.40459-27.715148c55.312787-30.803934 102.735738-33.892721 142.235279-9.249574-0.839344-41.17823-0.839344-90.38059 0-147.590295H243.409836z" fill="#D7E1C6" p-id="1736"></path></svg>