<?xml version="1.0" standalone="no"?><!DOCTYPE svg PUBLIC "-//W3C//DTD SVG 1.1//EN" "http://www.w3.org/Graphics/SVG/1.1/DTD/svg11.dtd"><svg t="1644312630055" class="icon" viewBox="0 0 1024 1024" version="1.1" xmlns="http://www.w3.org/2000/svg" p-id="6811" xmlns:xlink="http://www.w3.org/1999/xlink" width="200" height="200"><defs><style type="text/css"></style></defs><path d="M661.15 72L860 261.81V952H164V72h497.15M666 0H152a60 60 0 0 0-60 60v904a60 60 0 0 0 60 60h720a60 60 0 0 0 60-60V256.67a60 60 0 0 0-18.57-43.4L707.39 16.6A60 60 0 0 0 666 0z" fill="#959CA7" p-id="6812"></path><path d="M530 284H288a36 36 0 1 1 0-72h242a36 36 0 0 1 0 72zM896 295H684a36 36 0 0 1-36-36V47a36 36 0 0 1 72 0v176h176a36 36 0 1 1 0 72zM530 416H288a36 36 0 1 1 0-72h242a36 36 0 0 1 0 72z" fill="#959CA7" p-id="6813"></path><path d="M92 555m20 0l582 0q20 0 20 20l0 276q0 20-20 20l-582 0q-20 0-20-20l0-276q0-20 20-20Z" fill="#3C87F7" p-id="6814"></path><path d="M165.94 798.25V627.63h37l47.13 105.75h1.13l47.13-105.75h36.38v170.62h-32.27v-110.5h-1.5l-39.25 87.75h-22.63l-39.37-87.75h-1.5v110.5zM370.56 798.25V627.63h69.57q27.28 0 42.85 16.22t15.58 41.09q0 25.27-15.6 41.29t-43.07 16h-33v56z m36.25-83.75h19.09q17.71 0 26.81-6.76t9.11-22.8q0-14.15-7.67-21.86t-21.39-7.71h-25.95zM511.19 750.13h33.25a24.55 24.55 0 0 0 8.94 17.08q7.94 6.67 20.94 6.67 13.62 0 21.69-7.12a24 24 0 0 0-0.17-35.83q-8-6.8-22.05-6.8h-18.6v-27.75h17.73q11.82 0 19-6.32a20.73 20.73 0 0 0 7.23-16.36 19.91 19.91 0 0 0-7.15-15.5q-7.06-6.07-18.44-6.07-11.75 0-18.5 6.84a23.28 23.28 0 0 0-7.12 15.79h-33.75q0.62-22 16.63-36.19t44-14.19q25.74 0 42.5 12.48t17 31.94a41.39 41.39 0 0 1-2.79 16 34.51 34.51 0 0 1-7.56 12 42.94 42.94 0 0 1-9.86 7.43 31.3 31.3 0 0 1-10.29 3.55v1.39a38.54 38.54 0 0 1 12.42 3.2 43.48 43.48 0 0 1 11.54 7.51 35.39 35.39 0 0 1 8.78 12.77 46.32 46.32 0 0 1 3.51 17.71 42.49 42.49 0 0 1-9 27 57.54 57.54 0 0 1-24.25 18.09 86.76 86.76 0 0 1-33.41 6.26 83.58 83.58 0 0 1-27.25-4.12q-12-4.12-19.44-11.31a50 50 0 0 1-11.37-16.37 52.67 52.67 0 0 1-4.16-19.78z" fill="#FFFFFF" p-id="6815"></path></svg>