<?xml version="1.0" standalone="no"?><!DOCTYPE svg PUBLIC "-//W3C//DTD SVG 1.1//EN" "http://www.w3.org/Graphics/SVG/1.1/DTD/svg11.dtd"><svg t="1644309629535" class="icon" viewBox="0 0 1024 1024" version="1.1" xmlns="http://www.w3.org/2000/svg" p-id="2770" xmlns:xlink="http://www.w3.org/1999/xlink" width="200" height="200"><defs><style type="text/css"></style></defs><path d="M92.327869 0h469.831344L931.672131 235.603934V1024H92.327869z" fill="#F3F3F3" p-id="2771"></path><path d="M92.327869 0h490.395279L931.672131 218.514885V369.311475H92.327869z" fill="#8353B6" p-id="2772"></path><path d="M931.672131 218.514885l-236.023606 106.697443L582.723148 0z" fill="#56139E" p-id="2773"></path><path d="M582.723148 0l131.307016 288.449049L931.672131 218.514885z" fill="#AD76E6" p-id="2774"></path><path d="M181.617311 251.803279V160.952656h0.738623L221.133639 251.803279h18.65023l38.777705-90.850623h0.738623V251.803279h21.604721V119.959082h-25.297836l-44.686689 103.407213h-0.738623l-44.871344-103.407213H160.01259V251.803279h21.604721z m166.744132 0v-50.595672h32.684065c32.130098 0 48.195148-13.597377 48.195148-40.808918 0-26.959738-15.947541-40.439607-47.825836-40.439607h-54.658099V251.803279h21.604722z m31.391475-69.061246h-31.391475v-44.317377h31.391475c9.602098 0 16.551869 1.729049 20.866098 5.17036 4.549246 3.441311 6.832262 9.048131 6.832263 16.803673 0 7.889836-2.215869 13.597377-6.647607 17.172983-4.549246 3.441311-11.582951 5.170361-21.050754 5.170361zM522.491803 251.803279v-28.252328h19.573508v-17.172984h-19.573508V119.959082h-19.758164l-64.444852 83.095082v20.496787h63.706229V251.803279h20.496787z m-20.496787-45.425312h-46.163934l45.609967-59.089836h0.553967v59.089836z" fill="#FFFFFF" p-id="2775"></path><path d="M818.66282 684.065574v8.393442H201.442623v-8.393442h617.220197z m0-50.360656v8.393443H201.442623v-8.393443h617.220197z m0-33.57377v8.393442H201.442623v-8.393442h617.220197z m0-33.573771v8.393443H201.442623v-8.393443h617.220197z m0.520393-40.96v8.393443H201.963016v-8.393443h617.220197z" fill="#B885ED" fill-opacity=".4" p-id="2776"></path><path d="M295.952787 457.006164c10.156066 0 20.093902 17.458361 20.48 37.266885 0.503607 25.549639-12.925902 53.231213-42.554754 79.620197l-8.813115 7.906623-3.390951 3.105574 0.453246 5.254295c0.705049 7.470164 1.577967 15.007475 2.635541 22.528l0.721836 5.036065 0.251803-0.05036c2.937705-0.503607 6.043279-0.839344 9.367082-0.956853l3.357377-0.067147c28.672 0 47.574033 19.321705 56.454296 57.646164 0 28.336262-11.985836 48.648393-35.588197 60.432786l-1.964066 0.940066 0.235017 0.604328c2.350164 5.539672 4.733902 10.77718 7.151213 15.611803l2.434098 4.733902c20.614295 38.844852 5.707541 67.986885-36.59541 62.866885-36.511475-4.431738-48.598033-30.249967-36.780065-50.948197 4.263869-7.470164 15.14177-10.357508 25.6-8.343082 11.331148 2.182295 18.767738 9.635672 15.678951 19.590295-3.82741 12.405508-11.868328 17.324066-22.393705 12.892328a4.196721 4.196721 0 0 1 3.273442-7.721967c5.489311 2.299803 8.628459 0.386098 11.112918-7.65482 1.24223-4.062426-2.182295-7.503738-9.249574-8.863475-7.335869-1.410098-14.60459 0.503607-16.736524 4.263869-8.897049 15.595016 0.083934 34.748852 30.50177 38.441967 33.859148 4.112787 45.207082-15.997902 29.662427-47.674754l-1.494033-2.920918c-2.484459-4.700328-4.968918-9.803541-7.38623-15.259279l-2.786623-6.41259-4.247082 1.443672c-43.461246 13.58059-87.57718-28.084459-87.57718-66.022819 0-26.724721 7.268721-44.83777 37.518689-75.675279l7.386229-7.352656 8.275935-7.856262 2.064786-1.930492-0.386098-5.741115c-0.285377-5.019279-0.503607-9.988197-0.587541-14.906754l-0.083934-7.319082c0-69.732721 18.096262-96.52459 43.981639-96.52459z m346.817049 157.746361l28.13482 46.39895-7.168 4.364591-12.590164-20.748591 0.016787 113.781509c4.918557 5.976131 7.789115 13.194492 7.789114 21.033967 0 21.084328-20.849311 37.770492-46.163934 37.770492s-46.163934-16.686164-46.163934-37.770492c0-21.101115 20.849311-37.770492 46.163934-37.770492 11.398295 0 21.890098 3.374164 29.981377 9.031344V614.735738z m-29.981377 135.453377c-21.050754 0-37.770492 13.379148-37.770492 29.377049s16.719738 29.377049 37.770492 29.377049c21.033967 0 37.770492-13.379148 37.770492-29.377049 0-6.211148-2.518033-12.002623-6.815476-16.786885h-0.990426v-1.040787c-6.865836-6.983344-17.67659-11.549377-29.96459-11.549377z m-94.929836-210.003935l28.13482 46.415738-7.168 4.36459-12.590164-20.731803 0.016787 113.764721c4.918557 5.976131 7.789115 13.211279 7.789114 21.033967 0 21.084328-20.849311 37.770492-46.163934 37.770492s-46.163934-16.686164-46.163935-37.770492 20.849311-37.770492 46.163935-37.770491a52.542951 52.542951 0 0 1 29.981377 9.014557v-136.074492zM253.884852 592.14059l-4.532459 4.331017-7.184786 7.084065c-29.42741 29.712787-36.007869 46.163934-36.007869 70.756721 0 32.734426 39.18059 69.732721 76.665705 58.015476l3.625967-1.208656-1.24223-3.155934c-9.870689-25.851803-18.633443-56.957902-24.676721-89.155148l-1.863344-10.50859-1.796197 0.80577c-9.081705 4.398164-13.983475 12.422295-15.057836 24.30741l-0.167869 2.820197a4.196721 4.196721 0 1 1-8.393443-0.335738c0.671475-17.559082 8.108066-29.377049 21.789378-35.151737l2.283016-0.872918-0.889705-6.043279c-0.705049-5.12-1.342951-10.24-1.896918-15.326426l-0.671475-6.379017z m233.992394 83.548328c-21.033967 0-37.770492 13.379148-37.770492 29.377049s16.736525 29.377049 37.770492 29.377049c21.033967 0 37.770492-13.379148 37.770492-29.377049 0-6.211148-2.518033-12.002623-6.815476-16.786885h-0.973639v-1.040787c-6.882623-6.983344-17.693377-11.549377-29.981377-11.549377z m-209.399607-50.629246c-3.323803 0-6.395803 0.184656-9.232787 0.553967l-2.450885 0.402886 0.285377 1.712262c5.942557 35.000656 15.276066 69.161967 25.885377 97.028197l1.24223 3.155934 2.064787-1.007213c19.288131-9.853902 29.242754-25.902164 30.283541-48.094426l0.083934-3.542033c-7.97377-33.909508-23.904525-50.209574-48.178361-50.209574z m468.102295-31.542557c19.254557 0 35.202098 12.758033 35.202099 29.007737s-15.947541 28.990951-35.202099 28.990951-35.202098-12.758033-35.202098-28.990951c0-16.249705 15.947541-29.007738 35.202098-29.007737z m0 8.393442c-14.990689 0-26.808656 9.467803-26.808655 20.614295s11.817967 20.597508 26.808655 20.597509 26.808656-9.451016 26.808656-20.597509c0-11.146492-11.817967-20.614295-26.808656-20.614295z m-450.643934-136.494164c-20.396066 0-35.588197 22.494426-35.588197 88.114361 0 4.767475 0.100721 9.568525 0.302164 14.453508l0.302164 6.244722 7.335869-6.597246c27.899803-24.827803 40.221377-50.209574 39.768131-73.174033-0.318951-15.84682-7.839475-29.041311-12.120131-29.041312z" fill="#AD76E6" opacity=".6" p-id="2777"></path></svg>