<?xml version="1.0" standalone="no"?><!DOCTYPE svg PUBLIC "-//W3C//DTD SVG 1.1//EN" "http://www.w3.org/Graphics/SVG/1.1/DTD/svg11.dtd"><svg t="1644309638474" class="icon" viewBox="0 0 1024 1024" version="1.1" xmlns="http://www.w3.org/2000/svg" p-id="3372" xmlns:xlink="http://www.w3.org/1999/xlink" width="200" height="200"><defs><style type="text/css"></style></defs><path d="M92.327869 0h469.831344L931.672131 235.603934V1024H92.327869z" fill="#F3F3F3" p-id="3373"></path><path d="M465.836066 404.563934a6.714754 6.714754 0 0 1 1.359737 13.295214l-1.342951 0.134295H176.262295a6.714754 6.714754 0 0 1-1.342951-13.295213L176.262295 404.563934h289.573771zM728.349377 404.563934a6.714754 6.714754 0 0 1 1.342951 13.295214l-1.342951 0.134295h-157.528131a6.714754 6.714754 0 0 1-1.342951-13.295213l1.342951-0.134296h157.528131zM801.741639 463.318033a6.714754 6.714754 0 0 1 1.342951 13.295213l-1.342951 0.134295H570.821246a6.714754 6.714754 0 0 1-1.342951-13.295213l1.342951-0.134295H801.741639zM830.363279 513.678689a6.714754 6.714754 0 0 1 1.342951 13.295213l-1.342951 0.134295h-259.525246a6.714754 6.714754 0 0 1-1.359738-13.295213l1.342951-0.134295h259.525246zM830.363279 564.039344a6.714754 6.714754 0 0 1 1.342951 13.295213l-1.342951 0.134295h-259.525246a6.714754 6.714754 0 0 1-1.359738-13.295213l1.342951-0.134295h259.525246zM465.836066 463.318033a6.714754 6.714754 0 0 1 1.359737 13.295213l-1.342951 0.134295H176.262295a6.714754 6.714754 0 0 1-1.342951-13.295213L176.262295 463.318033h289.573771zM454.253115 564.039344a6.714754 6.714754 0 0 1 1.342951 13.295213l-1.342951 0.134295H176.262295a6.714754 6.714754 0 0 1-1.342951-13.295213L176.262295 564.039344h277.99082zM440.873967 601.927344a6.714754 6.714754 0 0 1 1.342951 13.278426l-1.342951 0.151082H176.262295a6.714754 6.714754 0 0 1-1.342951-13.295213l1.342951-0.134295h264.611672zM465.836066 652.288a6.714754 6.714754 0 0 1 1.359737 13.278426l-1.342951 0.151082H176.262295a6.714754 6.714754 0 0 1-1.342951-13.295213l1.342951-0.134295h289.573771zM490.647082 702.648656a6.714754 6.714754 0 0 1 1.342951 13.278426l-1.342951 0.151082H176.262295a6.714754 6.714754 0 0 1-1.342951-13.295213l1.342951-0.134295h314.384787zM465.836066 761.402754a6.714754 6.714754 0 0 1 1.359737 13.278426l-1.342951 0.151082H176.262295a6.714754 6.714754 0 0 1-1.342951-13.295213l1.342951-0.134295h289.573771zM465.836066 799.273967a6.714754 6.714754 0 0 1 1.359737 13.295213l-1.342951 0.134295H176.262295a6.714754 6.714754 0 0 1-1.342951-13.295213l1.342951-0.134295h289.573771zM477.45259 837.161967a6.714754 6.714754 0 0 1 1.342951 13.278426l-1.342951 0.151082H176.262295a6.714754 6.714754 0 0 1-1.342951-13.295213L176.262295 837.161967h301.190295zM477.45259 887.522623a6.714754 6.714754 0 0 1 1.342951 13.278426l-1.342951 0.151082H176.262295a6.714754 6.714754 0 0 1-1.342951-13.295213L176.262295 887.522623h301.190295zM377.016656 513.678689a6.714754 6.714754 0 0 1 1.342951 13.295213l-1.342951 0.134295H176.262295a6.714754 6.714754 0 0 1-1.342951-13.295213L176.262295 513.678689h200.754361z" fill="#E8E8E8" p-id="3374"></path><path d="M92.327869 0h490.395279L931.672131 218.514885V369.311475H92.327869z" fill="#E13038" p-id="3375"></path><path d="M931.672131 218.514885l-236.023606 106.697443L582.723148 0z" fill="#C2161A" p-id="3376"></path><path d="M582.723148 0l131.307016 288.449049L931.672131 218.514885z" fill="#ED4049" p-id="3377"></path><path d="M185.159344 251.803279v-50.595672h32.684066c32.130098 0 48.195148-13.597377 48.195147-40.808918 0-26.959738-15.947541-40.439607-47.825836-40.439607H163.554623V251.803279H185.159344z m31.391476-69.061246H185.159344v-44.317377H216.55082c9.602098 0 16.551869 1.729049 20.866098 5.17036 4.549246 3.441311 6.832262 9.048131 6.832262 16.803673 0 7.889836-2.215869 13.597377-6.647606 17.172983-4.549246 3.441311-11.582951 5.170361-21.050754 5.170361zM332.699279 251.803279c21.302557 0 37.485115-5.908984 48.564459-17.726951 10.575738-11.331148 15.880393-27.396197 15.880393-48.195148 0-20.933246-5.287869-36.998295-15.880393-48.195147-11.079344-11.817967-27.261902-17.726951-48.564459-17.726951h-48.195148V251.803279h48.195148z m-4.062427-18.465574h-22.528V138.424656h22.528c16.501508 0 28.504131 3.760262 36.007869 11.264 7.38623 7.38623 11.079344 19.456 11.079345 36.192524 0 16.249705-3.693115 28.252328-11.079345 36.007869-7.638033 7.638033-19.640656 11.448656-36.007869 11.448656z m110.424132 18.465574v-58.351213h64.444852v-18.465574h-64.444852V138.424656h68.322623v-18.465574h-89.927345V251.803279h21.604722z" fill="#FFFFFF" p-id="3378"></path><path d="M545.57377 671.47541h352.524591v352.52459H545.57377z" fill="#FBB7B6" p-id="3379"></path><path d="M545.57377 808.69141V1024h352.524591V840.066098c-63.555148 34.748852-110.071607 52.140066-139.549377 52.140066-44.199869 0-93.872262-18.029115-132.196722-44.468459A284.101246 284.101246 0 0 0 545.57377 808.69141z" fill="#FB9FA1" p-id="3380"></path><path d="M898.098361 911.024262V1024H545.57377v-56.487869c16.367213-33.741639 45.492459-50.629246 87.409312-50.629246 62.111475 8.326295 96.860328 50.629246 109.433705 50.629246 12.573377 0 27.261902 18.549508 105.572721-34.295606 22.192262-15.208918 38.895213-22.611934 50.108853-22.192263z" fill="#F29897" p-id="3381"></path></svg>