<?xml version="1.0" standalone="no"?><!DOCTYPE svg PUBLIC "-//W3C//DTD SVG 1.1//EN" "http://www.w3.org/Graphics/SVG/1.1/DTD/svg11.dtd"><svg t="1644309608081" class="icon" viewBox="0 0 1024 1024" version="1.1" xmlns="http://www.w3.org/2000/svg" p-id="2025" xmlns:xlink="http://www.w3.org/1999/xlink" width="200" height="200"><defs><style type="text/css"></style></defs><path d="M92.327869 0h469.831344L931.672131 235.603934V1024H92.327869z" fill="#F3F3F3" p-id="2026"></path><path d="M92.327869 0h490.395279L931.672131 218.514885V369.311475H92.327869z" fill="#6EA1C0" p-id="2027"></path><path d="M931.672131 218.514885l-236.023606 106.697443L582.723148 0z" fill="#21638D" p-id="2028"></path><path d="M582.723148 0l131.307016 288.449049L931.672131 218.514885z" fill="#72B0D5" p-id="2029"></path><path d="M194.006033 251.803279v-50.595672h32.684065c32.130098 0 48.195148-13.597377 48.195148-40.808918 0-26.959738-15.947541-40.439607-47.825836-40.439607H172.401311V251.803279h21.604722z m31.391475-69.061246h-31.391475v-44.317377h31.391475c9.602098 0 16.551869 1.729049 20.866099 5.17036 4.549246 3.441311 6.832262 9.048131 6.832262 16.803673 0 7.889836-2.215869 13.597377-6.647607 17.172983-4.549246 3.441311-11.582951 5.170361-21.050754 5.170361zM314.955541 251.803279V155.412984h0.738623L381.616262 251.803279h21.050754V119.959082h-21.789377v95.097705h-0.738623l-65.183475-95.097705h-21.604721V251.803279h21.604721z m173.207082 2.58518c11.700459 0 22.343344-1.477246 31.945443-4.431738a74.198033 74.198033 0 0 0 24.005245-12.55659V181.634098h-56.504655v18.465574h34.899934v27.144394a57.629377 57.629377 0 0 1-14.218492 6.093639c-5.539672 1.477246-11.448656 2.215869-17.72695 2.215869-15.997902 0-27.815869-4.431738-35.453902-13.295213-7.016918-8.376656-10.525377-20.312131-10.525377-35.823213 0-16.249705 3.944918-28.739148 11.817967-37.485115 7.134426-8.376656 16.92118-12.55659 29.360262-12.55659 10.088918 0 18.16341 2.098361 24.189902 6.278295 6.043279 4.31423 9.97141 10.642885 11.817967 19.019541h21.789377c-2.350164-14.654951-8.242361-25.667148-17.726951-33.053377-9.736393-7.503738-23.081967-11.264-40.070295-11.264-19.691016 0-35.202098 6.765115-46.533246 20.312131-10.827541 12.674098-16.249705 28.923803-16.249704 48.749115 0 19.691016 5.422164 35.705705 16.249704 48.010491 11.700459 13.295213 28.000525 19.94282 48.933771 19.94282z" fill="#FFFFFF" p-id="2030"></path><path d="M209.836066 436.459016h67.147541v67.147541H209.836066zM209.836066 570.754098h67.147541v67.147541H209.836066zM209.836066 705.04918h67.147541v67.147541H209.836066zM209.836066 839.344262h67.147541v67.147541H209.836066zM276.983607 503.606557h67.147541v67.147541h-67.147541zM276.983607 637.901639h67.147541v67.147541h-67.147541zM276.983607 772.196721h67.147541v67.147541h-67.147541zM411.278689 503.606557h67.147541v67.147541h-67.147541zM411.278689 637.901639h67.147541v67.147541h-67.147541zM411.278689 772.196721h67.147541v67.147541h-67.147541zM545.57377 503.606557h67.147541v67.147541h-67.147541zM545.57377 637.901639h67.147541v67.147541h-67.147541zM545.57377 772.196721h67.147541v67.147541h-67.147541zM679.868852 503.606557h67.147541v67.147541h-67.147541zM679.868852 637.901639h67.147541v67.147541h-67.147541zM679.868852 772.196721h67.147541v67.147541h-67.147541zM344.131148 436.459016h67.147541v67.147541h-67.147541zM344.131148 570.754098h67.147541v67.147541h-67.147541zM344.131148 705.04918h67.147541v67.147541h-67.147541zM344.131148 839.344262h67.147541v67.147541h-67.147541zM478.42623 436.459016h67.14754v67.147541h-67.14754zM478.42623 570.754098h67.14754v67.147541h-67.14754zM478.42623 705.04918h67.14754v67.147541h-67.14754zM478.42623 839.344262h67.14754v67.147541h-67.14754zM612.721311 436.459016h67.147541v67.147541h-67.147541zM612.721311 570.754098h67.147541v67.147541h-67.147541zM612.721311 705.04918h67.147541v67.147541h-67.147541zM612.721311 839.344262h67.147541v67.147541h-67.147541zM747.016393 436.459016h67.147541v67.147541h-67.147541zM747.016393 570.754098h67.147541v67.147541h-67.147541zM747.016393 705.04918h67.147541v67.147541h-67.147541zM747.016393 839.344262h67.147541v67.147541h-67.147541z" fill="#B7CFDB" p-id="2031"></path></svg>