<?xml version="1.0" standalone="no"?><!DOCTYPE svg PUBLIC "-//W3C//DTD SVG 1.1//EN" "http://www.w3.org/Graphics/SVG/1.1/DTD/svg11.dtd"><svg t="1644309642520" class="icon" viewBox="0 0 1024 1024" version="1.1" xmlns="http://www.w3.org/2000/svg" p-id="3670" xmlns:xlink="http://www.w3.org/1999/xlink" width="200" height="200"><defs><style type="text/css"></style></defs><path d="M99.096774 0h462.25342L924.903226 231.803871V1007.483871H99.096774z" fill="#F3F3F3" p-id="3671"></path><path d="M549.689806 710.193548A229.739355 229.739355 0 0 0 478.967742 876.345806c0 48.986839 15.277419 94.406194 41.323355 131.732646l327.019355-0.957936L549.67329 710.193548z" fill="#F49855" p-id="3672"></path><path d="M597.272774 668.738065l127.207226 128.429419 128.858839-119.692387c-38.383484-30.637419-78.12129-47.153548-119.196904-49.548387-41.092129-2.411355-86.709677 11.197935-136.869161 40.794838z" fill="#FAB37D" p-id="3673"></path><path d="M762.434065 830.100645l161.825032 152.625549V743.787355l-28.605936-31.397161z" fill="#F7CBA6" p-id="3674"></path><path d="M99.096774 0h482.485678L924.903226 214.990452V363.354839H99.096774z" fill="#F48744" p-id="3675"></path><path d="M924.903226 214.990452l-232.216774 104.976516L581.582452 0z" fill="#D26920" p-id="3676"></path><path d="M581.582452 0l129.189161 283.796645L924.903226 214.990452z" fill="#FEA05A" p-id="3677"></path><path d="M199.134968 247.741935v-49.779612h32.156903c31.611871 0 47.417806-13.378065 47.417806-40.15071 0-26.524903-15.690323-39.787355-47.054451-39.787355H177.87871V247.741935h21.256258z" fill="#FFFFFF" p-id="3678"></path><path d="M230.020129 179.794581h-30.885161v-43.602581h30.885161c9.447226 0 16.284903 1.701161 20.529548 5.086968 4.475871 3.385806 6.722065 8.902194 6.722065 16.532645 0 7.762581-2.180129 13.378065-6.540387 16.896-4.475871 3.385806-11.396129 5.086968-20.711226 5.086968z" fill="#F48744" p-id="3679"></path><path d="M318.133677 247.741935v-49.779612h32.156904c31.611871 0 47.417806-13.378065 47.417806-40.15071 0-26.524903-15.690323-39.787355-47.054452-39.787355h-53.776516V247.741935h21.256258z" fill="#FFFFFF" p-id="3680"></path><path d="M349.018839 179.794581h-30.885162v-43.602581h30.885162c9.447226 0 16.284903 1.701161 20.529548 5.086968 4.475871 3.385806 6.722065 8.902194 6.722065 16.532645 0 7.762581-2.180129 13.378065-6.540387 16.896-4.475871 3.385806-11.396129 5.086968-20.711226 5.086968z" fill="#F48744" p-id="3681"></path><path d="M469.652645 247.741935V136.192h42.512516v-18.167742h-106.28129v18.167742h42.512516V247.741935z" fill="#FFFFFF" p-id="3682"></path><path d="M826.549677 412.903226a8.258065 8.258065 0 0 1 1.486452 16.384l-1.486452 0.132129H181.677419a8.258065 8.258065 0 0 1-1.486451-16.384L181.677419 412.903226h644.872258zM826.549677 462.600258a8.258065 8.258065 0 0 1 1.486452 16.384l-1.486452 0.132129H181.677419a8.258065 8.258065 0 0 1-1.486451-16.384l1.486451-0.132129h644.872258zM428.923871 512.148645a8.258065 8.258065 0 0 1 1.486452 16.384l-1.486452 0.132129H181.677419a8.258065 8.258065 0 0 1-1.486451-16.384l1.486451-0.132129h247.246452zM394.570323 580.690581a5.780645 5.780645 0 0 1 1.156129 11.445677l-1.156129 0.115613H212.281806a5.780645 5.780645 0 0 1-1.156129-11.445677l1.156129-0.115613h182.255484zM453.549419 630.238968a5.780645 5.780645 0 0 1 1.156129 11.445677l-1.156129 0.115613H212.298323a5.780645 5.780645 0 0 1-1.156129-11.445677l1.156129-0.115613H453.532903zM394.570323 679.787355a5.780645 5.780645 0 0 1 1.156129 11.445677l-1.156129 0.115613H212.281806a5.780645 5.780645 0 0 1-1.156129-11.445677l1.156129-0.115613h182.255484z" fill="#EBEBEB" p-id="3683"></path></svg>