<?xml version="1.0" standalone="no"?><!DOCTYPE svg PUBLIC "-//W3C//DTD SVG 1.1//EN" "http://www.w3.org/Graphics/SVG/1.1/DTD/svg11.dtd"><svg t="1644312403832" class="icon" viewBox="0 0 1024 1024" version="1.1" xmlns="http://www.w3.org/2000/svg" p-id="2297" xmlns:xlink="http://www.w3.org/1999/xlink" width="200" height="200"><defs><style type="text/css"></style></defs><path d="M288 938.666667h618.666667a10.666667 10.666667 0 0 0 10.666666-10.666667V298.666667H736c-17.642667 0-32-14.357333-32-32V85.333333H288a10.666667 10.666667 0 0 0-10.666667 10.666667v832a10.666667 10.666667 0 0 0 10.666667 10.666667z" fill="#FFFFFF" p-id="2298"></path><path d="M912.917333 277.333333L725.333333 89.749333V266.666667a10.666667 10.666667 0 0 0 10.666667 10.666666h176.917333z" fill="#FFFFFF" p-id="2299"></path><path d="M929.290667 263.541333L739.125333 73.376A31.765333 31.765333 0 0 0 716.501333 64H288c-17.642667 0-32 14.357333-32 32v832c0 17.642667 14.357333 32 32 32h618.666667c17.642667 0 32-14.357333 32-32V286.165333c0-8.533333-3.338667-16.576-9.376-22.624zM725.333333 89.749333L912.917333 277.333333H736a10.666667 10.666667 0 0 1-10.666667-10.666666V89.749333zM906.666667 938.666667H288a10.666667 10.666667 0 0 1-10.666667-10.666667V96a10.666667 10.666667 0 0 1 10.666667-10.666667h416v181.333334c0 17.642667 14.357333 32 32 32h181.333333v629.333333a10.666667 10.666667 0 0 1-10.666666 10.666667z" fill="#605E5C" opacity=".64" p-id="2300"></path><path d="M650.666667 576l-10.666667-10.666667h-85.333333l-10.666667 10.666667v119.018667C572.32 720.416 609.632 736 650.666667 736c88.362667 0 160-71.637333 160-160H650.666667z" fill="#ED6C47" p-id="2301"></path><path d="M544 456.981333V576h106.666667V416c-41.034667 0-78.346667 15.573333-106.666667 40.981333z" fill="#FF8F6B" p-id="2302"></path><path d="M682.666667 384v160h160c0-88.362667-71.637333-160-160-160z" fill="#FFC7B5" p-id="2303"></path><path d="M128 789.333333h341.333333a42.666667 42.666667 0 0 0 42.666667-42.666666V405.333333a42.666667 42.666667 0 0 0-42.666667-42.666666H128a42.666667 42.666667 0 0 0-42.666667 42.666666v341.333334a42.666667 42.666667 0 0 0 42.666667 42.666666z" fill="#C43E1C" p-id="2304"></path><path d="M318.442667 448c31.52 0 55.68 7.072 72.426666 21.173333 16.746667 14.112 25.130667 34.56 25.130667 61.312 0 17.184-4.149333 32.458667-12.426667 45.834667-8.288 13.386667-20.074667 23.786667-35.349333 31.210667C352.96 614.954667 335.253333 618.666667 315.125333 618.666667h-48.469333v96H213.333333V448h105.109334zM266.666667 576h42.314666c16.490667 0 28.949333-3.733333 37.386667-11.146667 8.426667-7.434667 12.629333-18.293333 12.629333-32.576 0-27.733333-16.138667-41.610667-48.448-41.610666H266.666667v85.333333z" fill="#F9F7F7" p-id="2305"></path></svg>