<?xml version="1.0" standalone="no"?><!DOCTYPE svg PUBLIC "-//W3C//DTD SVG 1.1//EN" "http://www.w3.org/Graphics/SVG/1.1/DTD/svg11.dtd"><svg t="1644309611301" class="icon" viewBox="0 0 1024 1024" version="1.1" xmlns="http://www.w3.org/2000/svg" p-id="2172" xmlns:xlink="http://www.w3.org/1999/xlink" width="200" height="200"><defs><style type="text/css"></style></defs><path d="M92.327869 0h469.831344L931.672131 235.603934V1024H92.327869z" fill="#F3F3F3" p-id="2173"></path><path d="M92.327869 0h490.395279L931.672131 218.514885V369.311475H92.327869z" fill="#136BB2" p-id="2174"></path><path d="M931.672131 218.514885l-236.023606 106.697443L582.723148 0z" fill="#073E6A" p-id="2175"></path><path d="M582.723148 0l131.307016 288.449049L931.672131 218.514885z" fill="#3D92D6" p-id="2176"></path><path d="M194.006033 251.803279v-50.595672h32.684065c32.130098 0 48.195148-13.597377 48.195148-40.808918 0-26.959738-15.947541-40.439607-47.825836-40.439607H172.401311V251.803279h21.604722z m31.391475-69.061246h-31.391475v-44.317377h31.391475c9.602098 0 16.551869 1.729049 20.866099 5.17036 4.549246 3.441311 6.832262 9.048131 6.832262 16.803673 0 7.889836-2.215869 13.597377-6.647607 17.172983-4.549246 3.441311-11.582951 5.170361-21.050754 5.170361z m116.702426 71.646426c16.736525 0 29.796721-3.390951 39.147017-10.156066 9.232787-6.882623 13.84918-16.249705 13.84918-28.067672 0-12.187279-5.724328-21.655082-17.172983-28.436983-5.65718-3.323803-17.172984-7.638033-34.530623-12.925902-12.06977-3.810623-19.573508-6.530098-22.528-8.124852-6.160787-3.189508-9.232787-7.688393-9.232787-13.479869 0-6.395803 2.702689-10.961836 8.124852-13.664525 4.31423-2.350164 10.642885-3.508459 19.019541-3.508459 9.853902 0 17.122623 1.77941 21.789377 5.355017 4.918557 3.575607 8.309508 9.417443 10.156066 17.542295h21.420065c-1.342951-14.403148-6.647607-25.046033-15.880393-31.945443-8.611672-6.395803-20.74859-9.602098-36.37718-9.602098-14.268852 0-25.969311 3.189508-35.084591 9.602098-9.853902 6.530098-14.772459 15.695738-14.772459 27.513705 0 11.700459 5.036066 20.563934 15.141771 26.590426 3.810623 2.215869 13.916328 5.908984 30.283541 11.079344 14.151344 4.31423 22.712656 7.201574 25.667147 8.67882 8.242361 4.062426 12.371934 9.602098 12.371935 16.619016 0 5.287869-2.836984 9.669246-8.494164 13.110558-5.65718 3.189508-13.295213 4.801049-22.897312 4.801049-10.710033 0-18.717377-1.913705-24.005245-5.724328-5.65718-4.196721-9.232787-11.331148-10.710033-21.420065h-21.420066c0.856131 16.736525 6.882623 28.990951 18.096262 36.746491 9.115279 6.278295 21.789377 9.417443 38.039082 9.417443zM461.756852 251.803279c21.302557 0 37.485115-5.908984 48.564459-17.726951 10.575738-11.331148 15.880393-27.396197 15.880394-48.195148 0-20.933246-5.287869-36.998295-15.880394-48.195147-11.079344-11.817967-27.261902-17.726951-48.564459-17.726951h-48.195147V251.803279h48.195147z m-4.062426-18.465574h-22.528V138.424656h22.528c16.501508 0 28.504131 3.760262 36.007869 11.264 7.38623 7.38623 11.079344 19.456 11.079344 36.192524 0 16.249705-3.693115 28.252328-11.079344 36.007869-7.638033 7.638033-19.640656 11.448656-36.007869 11.448656z" fill="#FFFFFF" p-id="2177"></path><path d="M193.04918 872.918033h654.688525v33.57377H193.04918z" fill="#A1A1A1" p-id="2178"></path><path d="M243.409836 775.084066L290.883148 822.557377H195.936525z" fill="#706B68" p-id="2179"></path><path d="M461.639344 775.084066L509.112656 822.557377h-94.946623z" fill="#B1B0AF" p-id="2180"></path><path d="M797.377049 775.084066L844.850361 822.557377h-94.946623z" fill="#D4D4D1" p-id="2181"></path><path d="M193.04918 419.672131h637.90164v335.737705H193.04918z" fill="#CCE1F4" p-id="2182"></path><path d="M193.04918 743.222557c58.250492-10.055344 89.406951-45.056 93.502951-105.018754 9.064918 36.242885 26.321836 53.751607 51.753967 52.509377 33.943082-14.705311 54.137705-46.449311 60.550295-95.265573l15.511082-72.586492c10.441443 25.33141 20.530361 25.33141 30.266755 0 9.736393-25.348197 14.755672-46.365377 15.057836-63.118689 0.772197 122.34282 19.422426 206.814426 55.950688 253.381246 8.578098 33.473049 25.935738 26.002885 52.039344-22.410492 2.786623 35.017443 35.722492 52.509377 98.807607 52.509377-114.268328 2.283016-272.081836 2.283016-473.440525 0z" fill="#A4BDD1" p-id="2183"></path><path d="M843.540984 407.081967H180.459016v360.918033h663.081968v-360.918033z m-25.180328 25.180328v310.557377H205.639344v-310.557377h612.721312z" fill="#BACBD3" p-id="2184"></path></svg>