<?xml version="1.0" standalone="no"?><!DOCTYPE svg PUBLIC "-//W3C//DTD SVG 1.1//EN" "http://www.w3.org/Graphics/SVG/1.1/DTD/svg11.dtd"><svg t="1644331787997" class="icon" viewBox="0 0 1056 1024" version="1.1" xmlns="http://www.w3.org/2000/svg" p-id="5606" xmlns:xlink="http://www.w3.org/1999/xlink" width="206.25" height="200"><defs><style type="text/css"></style></defs><path d="M1.248 0h1024v1024h-1024z" fill-opacity="0" p-id="5607"></path><path d="M849.248 1024h-672c-41.6 0-76.8-35.2-73.6-80V80c0-41.6 32-76.8 73.6-80h521.6l224 236.8v710.4c0 41.6-32 76.8-73.6 76.8z" fill="#F5F1EC" p-id="5608"></path><path d="M922.848 313.6h-819.2V80c0-41.6 32-76.8 73.6-80h521.6l224 236.8v76.8z" fill="#E0B773" p-id="5609"></path><path d="M244.448 252.8v-57.6h25.6l25.6 54.4h25.6l-32-54.4c19.2-6.4 25.6-19.2 25.6-35.2 0-12.8-3.2-22.4-12.8-28.8-6.4-6.4-16-9.6-25.6-9.6h-51.2v131.2h19.2z m32-73.6h-32v-38.4h32c6.4 0 9.6 0 16 3.2 3.2 3.2 3.2 6.4 3.2 16 0 6.4-3.2 9.6-6.4 12.8 0 3.2-6.4 6.4-12.8 6.4z m83.2 73.6l9.6-28.8h48l9.6 28.8h22.4l-48-131.2h-16l-48 131.2h22.4z m54.4-48h-38.4l19.2-57.6 19.2 57.6z m86.4 48v-57.6h25.6l25.6 54.4h22.4l-28.8-54.4c16-6.4 25.6-19.2 25.6-35.2 0-12.8-3.2-22.4-12.8-28.8-6.4-6.4-16-9.6-25.6-9.6h-51.2v131.2h19.2z m28.8-73.6h-28.8v-38.4h32c6.4 0 9.6 0 16 3.2 3.2 3.2 6.4 6.4 6.4 16 0 6.4-3.2 9.6-6.4 12.8-6.4 3.2-12.8 6.4-19.2 6.4z" fill="#FFFFFF" p-id="5610"></path><path d="M922.848 236.8h-150.4c-41.6 0-76.8-35.2-73.6-80V0l112 118.4 112 118.4z" fill="#F5F1EC" p-id="5611"></path><path d="M426.848 464v409.6h172.8V464h-172.8z m150.4 140.8h-64v41.6h64v44.8h-64v41.6h64v44.8h-64v44.8h-64v-44.8h64v-44.8h-64v-41.6h64v-44.8h-64v-41.6h64v-41.6h-64v-44.8h64v44.8h64v41.6z" fill="#E0B773" p-id="5612"></path></svg>