<?xml version="1.0" standalone="no"?><!DOCTYPE svg PUBLIC "-//W3C//DTD SVG 1.1//EN" "http://www.w3.org/Graphics/SVG/1.1/DTD/svg11.dtd"><svg t="1644312970891" class="icon" viewBox="0 0 1024 1024" version="1.1" xmlns="http://www.w3.org/2000/svg" p-id="3675" xmlns:xlink="http://www.w3.org/1999/xlink" width="200" height="200"><defs><style type="text/css"></style></defs><path d="M80 16h736v992H80z" fill="#EEBFD9" p-id="3676"></path><path d="M352 560l96 96 96-96H352z m96 96H256l192 192 192-192H448z" fill="#FAB387" p-id="3677"></path><path d="M256 656h192l-96-96-96 96z m288-96l-96 96h192l-96-96z" fill="#FEEB9E" p-id="3678"></path><path d="M244.864 668.048l191.088 191.088c2.288 2.304 5.12 3.424 8.048 4.048 1.312 0.352 2.592 0.816 4 0.816 1.36 0 2.576-0.448 3.824-0.768a15.664 15.664 0 0 0 8.272-4.096l191.552-191.552c3.44-3.456 4.88-8.032 4.624-12.528a16.592 16.592 0 0 0-4.896-11.856L556.8 548.624c-2.784-2.784-6.336-3.904-9.968-4.256a15.552 15.552 0 0 0-4.704-0.368H354.384a16.096 16.096 0 0 0-4.016 0.24c-4.048 0.112-8.048 1.296-11.152 4.384L244.624 643.2c-4.912 4.928-6.096 12.16-3.6 18.208 0.768 2.416 1.92 4.72 3.84 6.64zM432 808.816L295.184 672H432v136.816z m32-0.048V672h136.768L464 808.768z m80.256-225.392L600.88 640h-113.248l56.624-56.624zM504.336 576l-56.08 56.08L392.176 576h112.16zM352 583.12L408.88 640h-113.744L352 583.12zM912 128h-80V32a32 32 0 0 0-32-32H96a32 32 0 0 0-32 32v960a32 32 0 0 0 32 32h704a32 32 0 0 0 32-32V416h80a32 32 0 0 0 32-32V160a32 32 0 0 0-32-32z m-112 0H192a32 32 0 0 0-32 32v224a32 32 0 0 0 32 32h608v576H96V32h704v96z" fill="#2B3139" p-id="3679"></path><path d="M192 160h720v224H192z" fill="#FFFFFF" p-id="3680"></path><path d="M260.976 289.632c0 2.88 0.48 5.44 1.28 7.52 2.56 6.88 10.24 8.32 16.784 8.32 5.76 0 14.544-1.92 14.544-10.384 0-5.92-4.96-7.52-24.624-13.12-18.064-5.104-38.688-10.064-38.688-33.088 0-26.384 22.544-37.728 46.048-37.728 24.784 0 46.688 9.424 47.648 37.248H290.72c0.64-4.32-1.28-7.184-4.16-9.104-2.88-2.08-6.88-2.88-10.4-2.88-4.8 0-12.64 1.28-12.64 7.664 0.64 8.16 16.96 9.904 33.104 14.384 16.16 4.48 32.144 12 32.144 32.944 0 29.744-27.344 39.344-52.768 39.344-12.96 0-49.888-4.64-50.208-41.088h35.184zM334.272 213.824h35.184v39.328h0.32l31.344-39.328h43.328l-41.408 44.608 48.128 69.568H407.36l-28.16-44.448-9.76 10.72V328h-35.184v-114.176zM451.392 213.824h94.512v29.264h-59.328v14.224h53.904v27.184h-53.904v14.24h61.088V328h-96.272v-114.176zM584.336 243.088h-32v-29.264h99.152v29.264H619.52V328h-35.168v-84.912zM730.064 256.352c-0.624-4.16-3.84-16.8-18.368-16.8-16.464 0-21.744 16-21.744 31.344 0 15.36 5.28 31.344 21.744 31.344 11.824 0 16.464-8.32 18.528-19.024h34.544c0 23.024-18.704 47.504-52.128 47.504-36.96 0-57.888-26.064-57.888-59.808 0-35.968 22.72-59.792 57.888-59.792 31.344 0.16 48.608 16.624 51.648 45.248h-34.224zM773.152 213.824h35.168v39.664h32.944v-39.664h35.168V328h-35.168v-45.248H808.32V328h-35.168v-114.176z" fill="#2B3139" p-id="3681"></path></svg>