<?xml version="1.0" standalone="no"?><!DOCTYPE svg PUBLIC "-//W3C//DTD SVG 1.1//EN" "http://www.w3.org/Graphics/SVG/1.1/DTD/svg11.dtd"><svg t="1644312425195" class="icon" viewBox="0 0 1024 1024" version="1.1" xmlns="http://www.w3.org/2000/svg" p-id="3131" xmlns:xlink="http://www.w3.org/1999/xlink" width="200" height="200"><defs><style type="text/css"></style></defs><path d="M112 16h736v992H112z" fill="#EEBFD9" p-id="3132"></path><path d="M336 592v240c0 35.344 64.464 64 144 64s144-28.656 144-64V592H336z" fill="#AEDAF5" p-id="3133"></path><path d="M336 592a144 64 0 1 0 288 0 144 64 0 1 0-288 0Z" fill="#DFF3FD" p-id="3134"></path><path d="M480 912c88.352 0 160-35.808 160-80V592c0-44.192-71.648-80-160-80s-160 35.808-160 80v240c0 44.192 71.648 80 160 80z m0-368c70.688 0 128 21.488 128 48s-57.312 48-128 48-128-21.488-128-48 57.312-48 128-48z m-128 95.856C381.184 659.344 427.584 672 480 672s98.816-12.656 128-32.144V672c0 26.512-57.312 48-128 48s-128-21.488-128-48v-32.144z m0 80C381.184 739.344 427.584 752 480 752s98.816-12.656 128-32.144V752c0 26.512-57.312 48-128 48s-128-21.488-128-48v-32.144z m0 80C381.184 819.344 427.584 832 480 832s98.816-12.656 128-32.144V832c0 26.512-57.312 48-128 48s-128-21.488-128-48v-32.144zM896 128h-32V32a32 32 0 0 0-32-32H128a32 32 0 0 0-32 32v960a32 32 0 0 0 32 32h704a32 32 0 0 0 32-32V416h32a32 32 0 0 0 32-32V160a32 32 0 0 0-32-32z m-64 0H448a32 32 0 0 0-32 32v224a32 32 0 0 0 32 32h384v576H128V32h704v96z" fill="#2B3139" p-id="3135"></path><path d="M448 160h448v224H448z" fill="#FFFFFF" p-id="3136"></path><path d="M536.336 289.632c0 2.88 0.48 5.44 1.28 7.52 2.56 6.88 10.24 8.32 16.8 8.32 5.744 0 14.544-1.92 14.544-10.384 0-5.92-4.96-7.52-24.624-13.12-18.064-5.104-38.704-10.064-38.704-33.088 0-26.384 22.544-37.728 46.064-37.728 24.784 0 46.688 9.424 47.664 37.248h-33.28c0.64-4.32-1.28-7.184-4.16-9.104-2.88-2.08-6.88-2.88-10.384-2.88-4.8 0-12.64 1.28-12.64 7.664 0.64 8.16 16.96 9.904 33.104 14.384s32.144 12 32.144 32.944c0 29.744-27.344 39.344-52.784 39.344-12.96 0-49.888-4.64-50.208-41.088h35.184zM711.968 340.464l-15.344-15.824c-6.4 4-16.464 6.08-27.024 6.08-34.704 0-57.888-24.96-57.888-59.808s23.184-59.792 57.888-59.792 57.888 24.944 57.888 59.792c0 15.84-4.8 29.6-13.264 39.984l13.6 13.904-15.856 15.664z m-31.504-64.128l9.6 9.76c1.44-4 2.256-8.976 2.256-15.2 0-25.424-13.76-31.344-22.72-31.344s-22.704 5.92-22.704 31.344c0 25.44 13.744 31.344 22.704 31.344 1.44 0 2.88-0.16 4.64-0.64l-9.6-9.904 15.824-15.36zM742.416 213.824H777.6v84.912h50.528V328h-85.712v-114.176z" fill="#2B3139" p-id="3137"></path></svg>