<?xml version="1.0" standalone="no"?><!DOCTYPE svg PUBLIC "-//W3C//DTD SVG 1.1//EN" "http://www.w3.org/Graphics/SVG/1.1/DTD/svg11.dtd"><svg t="1644309651458" class="icon" viewBox="0 0 1024 1024" version="1.1" xmlns="http://www.w3.org/2000/svg" p-id="3973" xmlns:xlink="http://www.w3.org/1999/xlink" width="200" height="200"><defs><style type="text/css"></style></defs><path d="M92.327869 0h469.831344L931.672131 235.603934V1024H92.327869z" fill="#F3F3F3" p-id="3974"></path><path d="M799.895082 470.032787a8.393443 8.393443 0 0 1 1.51082 16.65259l-1.51082 0.134295H209.836066a8.393443 8.393443 0 0 1-1.51082-16.65259L209.836066 470.032787h590.059016zM799.895082 562.360656a8.393443 8.393443 0 0 1 1.51082 16.65259l-1.51082 0.134295H209.836066a8.393443 8.393443 0 0 1-1.51082-16.65259L209.836066 562.360656h590.059016zM799.895082 663.081967a8.393443 8.393443 0 0 1 1.51082 16.65259l-1.51082 0.134295H209.836066a8.393443 8.393443 0 0 1-1.51082-16.65259L209.836066 663.081967h590.059016zM799.895082 763.803279a8.393443 8.393443 0 0 1 1.51082 16.65259l-1.51082 0.134295H209.836066a8.393443 8.393443 0 0 1-1.51082-16.65259L209.836066 763.803279h590.059016zM799.895082 864.52459a8.393443 8.393443 0 0 1 1.51082 16.65259l-1.51082 0.134295H209.836066a8.393443 8.393443 0 0 1-1.51082-16.65259L209.836066 864.52459h590.059016z" fill="#C7D0DF" p-id="3975"></path><path d="M92.327869 0h490.395279L931.672131 218.514885V369.311475H92.327869z" fill="#424BCC" p-id="3976"></path><path d="M931.672131 218.514885l-236.023606 106.697443L582.723148 0z" fill="#2934AC" p-id="3977"></path><path d="M582.723148 0l131.307016 288.449049L931.672131 218.514885z" fill="#5560D6" p-id="3978"></path><path d="M227.05941 251.803279V138.424656H270.268852v-18.465574H162.245246v18.465574h43.209443V251.803279h21.604721z m73.308328 0l33.976655-50.964984L368.321049 251.803279h26.405771l-47.456525-68.137968 44.502033-63.706229h-26.405771l-31.022164 46.533246-31.022163-46.533246h-26.405771l44.132721 63.706229L273.961967 251.803279h26.405771z m162.86636 0V138.424656h43.209443v-18.465574h-108.023607v18.465574h43.209443V251.803279h21.604721z" fill="#FFFFFF" p-id="3979"></path></svg>