<?xml version="1.0" standalone="no"?><!DOCTYPE svg PUBLIC "-//W3C//DTD SVG 1.1//EN" "http://www.w3.org/Graphics/SVG/1.1/DTD/svg11.dtd"><svg t="1644312565039" class="icon" viewBox="0 0 1024 1024" version="1.1" xmlns="http://www.w3.org/2000/svg" p-id="4954" xmlns:xlink="http://www.w3.org/1999/xlink" width="200" height="200"><defs><style type="text/css"></style></defs><path d="M288 938.666667h618.666667a10.666667 10.666667 0 0 0 10.666666-10.666667V298.666667H736c-17.642667 0-32-14.357333-32-32V85.333333H288a10.666667 10.666667 0 0 0-10.666667 10.666667v832a10.666667 10.666667 0 0 0 10.666667 10.666667z" fill="#FFFFFF" p-id="4955"></path><path d="M912.917333 277.333333L725.333333 89.749333V266.666667a10.666667 10.666667 0 0 0 10.666667 10.666666h176.917333z" fill="#FFFFFF" p-id="4956"></path><path d="M929.290667 263.541333L739.125333 73.376A31.765333 31.765333 0 0 0 716.501333 64H288c-17.642667 0-32 14.357333-32 32v832c0 17.642667 14.357333 32 32 32h618.666667c17.642667 0 32-14.357333 32-32V286.165333c0-8.533333-3.338667-16.576-9.376-22.624zM725.333333 89.749333L912.917333 277.333333H736a10.666667 10.666667 0 0 1-10.666667-10.666666V89.749333zM906.666667 938.666667H288a10.666667 10.666667 0 0 1-10.666667-10.666667V96a10.666667 10.666667 0 0 1 10.666667-10.666667h416v181.333334c0 17.642667 14.357333 32 32 32h181.333333v629.333333a10.666667 10.666667 0 0 1-10.666666 10.666667z" fill="#605E5C" opacity=".64" p-id="4957"></path><path d="M693.333333 480c-41.173333 0-74.666667-33.493333-74.666666-74.666667s33.493333-74.666667 74.666666-74.666666 74.666667 33.493333 74.666667 74.666666-33.493333 74.666667-74.666667 74.666667z m0-128c-29.408 0-53.333333 23.925333-53.333333 53.333333s23.925333 53.333333 53.333333 53.333334 53.333333-23.925333 53.333334-53.333334-23.925333-53.333333-53.333334-53.333333z m85.333334 469.333333c-41.173333 0-74.666667-33.493333-74.666667-74.666666s33.493333-74.666667 74.666667-74.666667 74.666667 33.493333 74.666666 74.666667-33.493333 74.666667-74.666666 74.666666z m0-128c-29.408 0-53.333333 23.925333-53.333334 53.333334s23.925333 53.333333 53.333334 53.333333 53.333333-23.925333 53.333333-53.333333-23.925333-53.333333-53.333333-53.333334z" fill="#C8C6C4" p-id="4958"></path><path d="M842.666667 341.333333m-10.666667 0a10.666667 10.666667 0 1 0 21.333333 0 10.666667 10.666667 0 1 0-21.333333 0Z" fill="#C8C6C4" p-id="4959"></path><path d="M842.666667 405.333333m-10.666667 0a10.666667 10.666667 0 1 0 21.333333 0 10.666667 10.666667 0 1 0-21.333333 0Z" fill="#C8C6C4" p-id="4960"></path><path d="M842.666667 469.333333m-10.666667 0a10.666667 10.666667 0 1 0 21.333333 0 10.666667 10.666667 0 1 0-21.333333 0Z" fill="#C8C6C4" p-id="4961"></path><path d="M842.666667 533.333333m-10.666667 0a10.666667 10.666667 0 1 0 21.333333 0 10.666667 10.666667 0 1 0-21.333333 0Z" fill="#C8C6C4" p-id="4962"></path><path d="M586.666667 810.666667m-10.666667 0a10.666667 10.666667 0 1 0 21.333333 0 10.666667 10.666667 0 1 0-21.333333 0Z" fill="#C8C6C4" p-id="4963"></path><path d="M650.666667 810.666667m-10.666667 0a10.666667 10.666667 0 1 0 21.333333 0 10.666667 10.666667 0 1 0-21.333333 0Z" fill="#C8C6C4" p-id="4964"></path><path d="M128 789.333333h341.333333a42.666667 42.666667 0 0 0 42.666667-42.666666V405.333333a42.666667 42.666667 0 0 0-42.666667-42.666666H129.066667A43.733333 43.733333 0 0 0 85.333333 406.4V746.666667a42.666667 42.666667 0 0 0 42.666667 42.666666z" fill="#3955A3" p-id="4965"></path><path d="M291.264 621.024c7.146667 20.426667 11.36 33.312 12.650667 38.666667h0.874666c1.28-5.354667 5.856-19.157333 13.696-41.408L374.858667 458.666667H426.666667l-95.530667 245.333333H275.626667L181.333333 458.666667h53.386667l56.544 162.357333z" fill="#FFFFFF" p-id="4966"></path></svg>