<?xml version="1.0" standalone="no"?><!DOCTYPE svg PUBLIC "-//W3C//DTD SVG 1.1//EN" "http://www.w3.org/Graphics/SVG/1.1/DTD/svg11.dtd"><svg t="1644309627196" class="icon" viewBox="0 0 1024 1024" version="1.1" xmlns="http://www.w3.org/2000/svg" p-id="2623" xmlns:xlink="http://www.w3.org/1999/xlink" width="200" height="200"><defs><style type="text/css"></style></defs><path d="M92.327869 0h469.831344L931.672131 235.603934V1024H92.327869z" fill="#F3F3F3" p-id="2624"></path><path d="M418.967082 760.361967c-0.889705 8.964197-12.993049 10.172852-16.098623 2.484459l-0.470033-1.56118-28.050885-130.887344-20.715016 84.051934a8.393443 8.393443 0 0 1-12.069771 5.422164l-1.242229-0.80577-45.00564-34.967082H176.262295a8.393443 8.393443 0 0 1-8.259147-6.882623l-0.134296-1.51082a8.393443 8.393443 0 0 1 6.882623-8.242361l1.51082-0.134295h121.939935a8.393443 8.393443 0 0 1 3.995278 1.007213l1.175082 0.75541 37.048656 28.772721 26.35541-106.865311c2.014426-8.108066 12.993049-8.443803 15.89718-1.275803l0.470033 1.527606 24.391344 113.88223 18.381639-186.032263c0.923279-9.383869 13.782033-10.088918 16.33364-1.863344l0.335738 1.645115 30.048524 240.774295 27.396197-323.902951c0.822557-9.719607 14.268852-10.189639 16.451147-1.611541l0.285377 1.729049 17.726951 250.947148 27.245115-168.238164c1.494033-9.165639 14.134557-9.266361 16.367213-1.057574l0.285377 1.645115 14.252066 157.696 34.883147-86.972852a8.393443 8.393443 0 0 1 15.242492-0.772197l0.570754 1.410098 23.669508 76.783213h180.962623a8.393443 8.393443 0 0 1 8.242361 6.89941l0.134295 1.51082a8.393443 8.393443 0 0 1-6.882623 8.259147l-1.51082 0.134295H660.815738a8.393443 8.393443 0 0 1-7.503738-4.649967l-0.503607-1.275803-18.532721-60.046689-39.046295 97.414295c-3.072 7.671607-13.865967 6.597246-15.863607-0.80577l-0.285377-1.56118-11.415082-126.22059-28.134819 173.912131c-1.51082 9.249574-14.319213 9.232787-16.400787 0.906491l-0.26859-1.678688-15.225705-215.207869-25.012459 296.103869c-0.80577 9.451016-13.765246 10.273574-16.350426 1.997639l-0.335738-1.678688-30.703213-245.843935-16.283279 164.880787z" fill="#90BBC4" p-id="2625"></path><path d="M92.327869 0h490.395279L931.672131 218.514885V369.311475H92.327869z" fill="#236B84" p-id="2626"></path><path d="M931.672131 218.514885l-236.023606 106.697443L582.723148 0z" fill="#0F476B" p-id="2627"></path><path d="M582.723148 0l131.307016 288.449049L931.672131 218.514885z" fill="#2F7A97" p-id="2628"></path><path d="M204.548197 251.803279l25.851803-99.160131h0.738623L256.80577 251.803279h22.897312l38.039082-131.844197h-24.374557l-24.743869 100.268066h-0.738623L241.848656 119.959082H219.505311l-26.036459 100.268066h-0.738622L167.986361 119.959082H143.611803L181.46623 251.803279h23.081967z m137.199213 0l12.002623-33.053377h55.212065L420.964721 251.803279h23.081968l-50.411017-131.844197h-24.559213L318.665443 251.803279h23.081967z m60.751738-50.780328h-42.286164l20.866098-57.797246h0.738623l20.681443 57.797246zM505.906361 251.803279l25.851803-99.160131h0.738623L558.163934 251.803279h22.897312l38.039082-131.844197h-24.374558l-24.743868 100.268066h-0.738623l-26.036459-100.268066h-22.343345l-26.036459 100.268066h-0.738623l-24.743868-100.268066h-24.374558L482.824393 251.803279h23.081968z" fill="#FFFFFF" p-id="2629"></path></svg>