<?xml version="1.0" standalone="no"?><!DOCTYPE svg PUBLIC "-//W3C//DTD SVG 1.1//EN" "http://www.w3.org/Graphics/SVG/1.1/DTD/svg11.dtd"><svg t="1644309636242" class="icon" viewBox="0 0 1024 1024" version="1.1" xmlns="http://www.w3.org/2000/svg" p-id="3215" xmlns:xlink="http://www.w3.org/1999/xlink" width="200" height="200"><defs><style type="text/css"></style></defs><path d="M99.096774 0h462.25342L924.903226 231.803871V1007.483871H99.096774z" fill="#F3F3F3" p-id="3216"></path><path d="M165.16129 426.149161h429.419355v445.935484H165.16129z" fill="#E7E7E7" p-id="3217"></path><path d="M181.677419 508.729806h148.645162v66.064517H181.677419z" fill="#F4DFB0" p-id="3218"></path><path d="M346.83871 508.729806h66.064516v66.064517h-66.064516zM429.419355 508.729806h66.064516v66.064517h-66.064516zM512 508.729806h66.064516v66.064517h-66.064516z" fill="#FFFFFF" p-id="3219"></path><path d="M181.677419 591.310452h148.645162v66.064516H181.677419z" fill="#F4DFB0" p-id="3220"></path><path d="M346.83871 591.310452h66.064516v66.064516h-66.064516zM429.419355 591.310452h66.064516v66.064516h-66.064516zM512 591.310452h66.064516v66.064516h-66.064516z" fill="#FFFFFF" p-id="3221"></path><path d="M181.677419 673.891097h148.645162v66.064516H181.677419z" fill="#F4DFB0" p-id="3222"></path><path d="M346.83871 673.891097h66.064516v66.064516h-66.064516zM429.419355 673.891097h66.064516v66.064516h-66.064516zM512 673.891097h66.064516v66.064516h-66.064516z" fill="#FFFFFF" p-id="3223"></path><path d="M181.677419 756.471742h148.645162v66.064516H181.677419z" fill="#F4DFB0" p-id="3224"></path><path d="M346.83871 756.471742h66.064516v66.064516h-66.064516zM429.419355 756.471742h66.064516v66.064516h-66.064516zM512 756.471742h66.064516v66.064516h-66.064516z" fill="#FFFFFF" p-id="3225"></path><path d="M623.351742 673.891097h62.216258L920.840258 1007.483871h-71.234064z" fill="#C8E2BB" p-id="3226"></path><path d="M910.005677 673.891097H847.772903L610.931613 1007.483871h71.217548z" fill="#C8E2BB" p-id="3227"></path><path d="M99.096774 0h482.485678L924.903226 214.990452V363.354839H99.096774z" fill="#579120" p-id="3228"></path><path d="M924.903226 214.990452l-232.216774 104.976516L581.582452 0z" fill="#326E02" p-id="3229"></path><path d="M581.582452 0l129.189161 283.796645L924.903226 214.990452z" fill="#81C738" p-id="3230"></path><path d="M192.049548 247.741935l33.428646-50.142967L258.906839 247.741935h25.979871l-46.691097-67.038967 43.784258-62.67871H256L225.478194 163.806968 194.956387 118.024258H168.976516l43.420903 62.67871L166.069677 247.741935h25.979871z m197.665033 0v-18.167741H319.587097V118.024258h-21.074581V247.741935h91.202065z m64.313806 2.543484c16.466581 0 29.316129-3.336258 38.515613-9.992258 9.083871-6.771613 13.625806-15.987613 13.625806-27.614967 0-11.99071-5.632-21.305806-16.896-27.978323-5.565935-3.270194-16.896-7.514839-33.973677-12.717419-11.875097-3.749161-19.257806-6.424774-22.164645-7.993807-6.061419-3.138065-9.083871-7.564387-9.083871-13.262451 0-6.292645 2.659097-10.785032 7.993806-13.444129 4.244645-2.312258 10.471226-3.451871 18.712775-3.451871 9.694968 0 16.846452 1.75071 21.437935 5.268645 4.839226 3.517935 8.175484 9.265548 9.992258 17.259355h21.074581c-1.32129-14.170839-6.540387-24.642065-15.624258-31.430194-8.472774-6.292645-20.413935-9.447226-35.790452-9.447226-14.03871 0-25.550452 3.138065-34.51871 9.447226-9.694968 6.424774-14.534194 15.442581-14.534193 27.069935 0 11.511742 4.954839 20.232258 14.897548 26.161549 3.749161 2.180129 13.691871 5.813677 29.795097 10.900645 13.923097 4.244645 22.346323 7.085419 25.253161 8.538839 8.109419 3.996903 12.172387 9.447226 12.172387 16.350967 0 5.202581-2.791226 9.51329-8.357161 12.899097-5.565935 3.138065-13.080774 4.723613-22.528 4.723613-10.53729 0-18.415484-1.882839-23.618064-5.632-5.565935-4.129032-9.083871-11.148387-10.537291-21.07458h-21.07458c0.842323 16.466581 6.771613 28.523355 17.804387 36.153806 8.968258 6.177032 21.437935 9.265548 37.425548 9.265548z" fill="#FFFFFF" p-id="3231"></path></svg>