<?xml version="1.0" standalone="no"?><!DOCTYPE svg PUBLIC "-//W3C//DTD SVG 1.1//EN" "http://www.w3.org/Graphics/SVG/1.1/DTD/svg11.dtd"><svg t="1644309584999" class="icon" viewBox="0 0 1024 1024" version="1.1" xmlns="http://www.w3.org/2000/svg" p-id="1424" xmlns:xlink="http://www.w3.org/1999/xlink" width="200" height="200"><defs><style type="text/css"></style></defs><path d="M92.327869 0h469.831344L931.672131 235.603934V1024H92.327869z" fill="#F3F3F3" p-id="1425"></path><path d="M92.327869 0h490.395279L931.672131 218.514885V369.311475H92.327869z" fill="#FFC03F" p-id="1426"></path><path d="M931.672131 218.514885l-236.023606 106.697443L582.723148 0z" fill="#C8960D" p-id="1427"></path><path d="M582.723148 0l131.307016 288.449049L931.672131 218.514885z" fill="#FFD366" p-id="1428"></path><path d="M272.854033 251.803279v-18.465574H192.344131l76.078164-96.205639V119.959082H169.631475v18.465574h70.723148l-76.26282 96.390295V251.803279h108.76223z m39.147016 0V119.959082h-21.604721V251.803279h21.604721z m47.456525 0v-50.595672h32.684065c32.130098 0 48.195148-13.597377 48.195148-40.808918 0-26.959738-15.947541-40.439607-47.825836-40.439607h-54.658099V251.803279h21.604722z m31.391475-69.061246h-31.391475v-44.317377h31.391475c9.602098 0 16.551869 1.729049 20.866099 5.17036 4.549246 3.441311 6.832262 9.048131 6.832262 16.803673 0 7.889836-2.215869 13.597377-6.647607 17.172983-4.549246 3.441311-11.582951 5.170361-21.050754 5.170361z" fill="#FFFFFF" p-id="1429"></path><path d="M260.196721 470.032787h184.655738v553.967213H260.196721z" fill="#BABABA" p-id="1430"></path><path d="M293.770492 470.032787h117.508197v201.442623H293.770492z" fill="#E9E9E9" p-id="1431"></path><path d="M310.557377 520.393443m16.786885 0l50.360656 0q16.786885 0 16.786885 16.786885l0 0q0 16.786885-16.786885 16.786885l-50.360656 0q-16.786885 0-16.786885-16.786885l0 0q0-16.786885 16.786885-16.786885Z" fill="#BABABA" p-id="1432"></path><path d="M352.52459 612.721311m-25.180328 0a25.180328 25.180328 0 1 0 50.360656 0 25.180328 25.180328 0 1 0-50.360656 0Z" fill="#BABABA" p-id="1433"></path><path d="M276.983607 671.47541h151.081967v302.163934H276.983607z" fill="#9D9D9D" p-id="1434"></path><path d="M327.344262 688.262295m8.393443 0l67.147541 0q8.393443 0 8.393443 8.393443l0 0q0 8.393443-8.393443 8.393442l-67.147541 0q-8.393443 0-8.393443-8.393442l0 0q0-8.393443 8.393443-8.393443Z" fill="#DEDEDE" p-id="1435"></path><path d="M327.344262 788.983607m8.393443 0l67.147541 0q8.393443 0 8.393443 8.393442l0 0q0 8.393443-8.393443 8.393443l-67.147541 0q-8.393443 0-8.393443-8.393443l0 0q0-8.393443 8.393443-8.393442Z" fill="#DEDEDE" p-id="1436"></path><path d="M327.344262 889.704918m8.393443 0l67.147541 0q8.393443 0 8.393443 8.393443l0 0q0 8.393443-8.393443 8.393442l-67.147541 0q-8.393443 0-8.393443-8.393442l0 0q0-8.393443 8.393443-8.393443Z" fill="#DEDEDE" p-id="1437"></path><path d="M293.770492 738.622951m8.393442 0l67.147541 0q8.393443 0 8.393443 8.393442l0 0q0 8.393443-8.393443 8.393443l-67.147541 0q-8.393443 0-8.393442-8.393443l0 0q0-8.393443 8.393442-8.393442Z" fill="#DEDEDE" p-id="1438"></path><path d="M293.770492 839.344262m8.393442 0l67.147541 0q8.393443 0 8.393443 8.393443l0 0q0 8.393443-8.393443 8.393443l-67.147541 0q-8.393443 0-8.393442-8.393443l0 0q0-8.393443 8.393442-8.393443Z" fill="#DEDEDE" p-id="1439"></path><path d="M293.770492 940.065574m8.393442 0l67.147541 0q8.393443 0 8.393443 8.393442l0 0q0 8.393443-8.393443 8.393443l-67.147541 0q-8.393443 0-8.393442-8.393443l0 0q0-8.393443 8.393442-8.393442Z" fill="#DEDEDE" p-id="1440"></path></svg>