<?xml version="1.0" standalone="no"?><!DOCTYPE svg PUBLIC "-//W3C//DTD SVG 1.1//EN" "http://www.w3.org/Graphics/SVG/1.1/DTD/svg11.dtd"><svg t="1644302447620" class="icon" viewBox="0 0 1024 1024" version="1.1" xmlns="http://www.w3.org/2000/svg" p-id="1713" xmlns:xlink="http://www.w3.org/1999/xlink" width="200" height="200"><defs><style type="text/css"></style></defs><path d="M531.423741 523.115896m-473.243905 0a473.243905 473.243905 0 1 0 946.48781 0 473.243905 473.243905 0 1 0-946.48781 0Z" fill="#70C4FF" p-id="1714"></path><path d="M525.155472 65.569663s-47.35056 267.421209 55.71656 286.923875c103.06712 19.498511 147.64286-8.357692 200.56383 44.571586s171.851919 34.598019 175.499063-19.502665c0 0.004154-72.431943-270.208491-431.779453-311.992796zM232.225026 877.993785s109.310465 16.628151 209.706613-25.251693c106.332103-44.359736 202.657407-150.691839 148.506876-277.187081-85.155407-198.910569-167.51107-93.666794-138.608079-249.816887 28.894683-156.150093-61.889288-218.384157-125.215834-218.384156s-339.67038 412.891568-94.389576 770.639817z" fill="#A3D9FF" opacity=".26" p-id="1715"></path><path d="M209.270451 869.436705s94.8382 15.718442 181.945951-23.880899c92.258614-41.937999 175.831377-142.504458 128.850515-262.087573C446.172793 395.391093 374.72533 494.910764 399.798405 347.267904c25.068921-147.64286-53.710215-206.487323-108.641684-206.487324-54.94393 0-294.708325 390.398079-81.88627 728.656125z" fill="#A3D9FF" opacity=".26" p-id="1716"></path><path d="M223.194399 156.320404c150.30137 23.062577 96.146685 151.452007 138.529154 301.56645 27.498966 97.388708 69.013265 83.161524 106.199178 155.381618 56.79658 75.102915-217.283367 325.929205-364.236677 116.397056-145.653131-359.663208 119.508344-573.345124 119.508345-573.345124z" fill="#9EE3C3" p-id="1717"></path><path d="M248.529171 827.980561c-62.923615 0-117.71385-30.70164-158.447212-88.777627l-1.088328-1.549413-0.710321-1.752956c-77.541267-191.470894-39.748882-342.279043 5.607796-435.077667 49.140901-100.545689 116.052281-155.165613 118.876948-157.441962l5.703335-4.594238 7.240287 1.113251C342.789975 157.861509 349.760257 236.162944 357.835482 326.830606c3.422832 38.432089 7.298441 81.994272 19.876518 126.536781 14.64673 51.882489 32.691368 68.460793 53.581444 87.664376 15.930292 14.638422 33.962469 31.212572 50.790008 63.455317 14.123336 19.851595 13.346552 47.932109-2.251426 79.285915-34.502479 69.353887-132.746895 144.207566-231.302855 144.207566z m-130.159001-106.327949c34.564787 48.505351 78.347128 73.100725 130.154847 73.100725 90.680124 0 175.320444-73.046724 201.552463-125.776614 9.869719-19.834979 11.539596-36.488053 4.585931-45.680683l-0.864016-1.142329-0.65632-1.275254c-14.293647-27.760663-28.89053-41.173678-44.34312-55.371784-22.551644-20.723918-45.86761-42.154003-63.07731-103.100351-13.417169-47.533333-17.44232-92.740469-20.993924-132.622277-7.717988-86.68405-12.465921-139.970566-96.578693-155.763778-16.511841 14.912581-67.073383 64.427335-105.036079 142.683076-60.767729 125.28645-62.366989 261.514332-4.743779 404.949269z" fill="#6E6E96" p-id="1718"></path><path d="M571.671094 51.595869s-74.143359 252.708017 88.781781 252.708016c165.550419 0 196.584372 149.869362 300.125039 19.162044-110.407101-265.963183-388.906821-271.87006-388.90682-271.87006z" fill="#9EE3C3" p-id="1719"></path><path d="M880.531832 393.592445h-0.016616c-26.664027-0.004154-50.229228-13.230243-77.51219-28.5416-36.861906-20.686533-78.642057-44.13127-142.545997-44.13127-40.812287 0-72.161938-14.231338-93.180785-42.303545-56.489189-75.439383-13.408861-225.350284-11.54375-231.697478l3.576527-12.204223 12.71931 0.270005c2.970054 0.062309 73.740429 1.952343 159.082762 37.472533 79.007602 32.882449 185.613864 102.016178 244.819718 244.641099l3.746838 9.026473-6.06888 7.659833c-32.770293 41.360604-61.47805 59.808173-93.076937 59.808173zM584.29071 69.117113c-3.43114 14.297801-8.644312 39.100871-11.23636 67.015228-5.121786 55.17655 2.085269 97.567327 20.844382 122.594709 14.605191 19.486049 36.375898 28.961146 66.554143 28.961146 72.5981 0 120.397284 26.82603 158.808603 48.380733 24.179982 13.570864 43.275562 24.28383 61.257892 24.287984h0.008308c11.917603 0 30.905182-4.295156 60.817576-39.620111-44.405429-100.973543-119.001566-173.991189-221.856835-217.125518-59.1477-24.798916-111.715586-32.28013-135.197709-34.494171z" fill="#6E6E96" p-id="1720"></path><path d="M527.244895 45.693145C265.880104 45.693145 58.179836 257.57226 58.179836 518.93705s207.700269 473.243905 469.065059 473.243905c261.360637 0 473.243905-211.879114 473.243905-473.243905S788.605532 45.693145 527.244895 45.693145z m341.847035 527.016429c-16.702922 58.329377-117.518616 40.309662-157.570734 83.684919-32.58752 35.295878-1.05925 135.098015-44.800052 156.204094-50.345538 24.28383-106.801496 37.887925-166.443513 37.887925-66.047364 0 80.540399-120.492824 26.273559-149.881824-19.303277-10.472038-29.214535 47.163634-38.303318-80.835328-3.343907-47.001631-70.969762-68.801415-115.250574-176.412926-11.124204-27.029572-31.906277-217.345676-40.056272-206.483169-50.137842 66.861533-8.357692 276.385374 39.00533 385.812148 29.92901 69.158652-172.749166 189.381471-172.749166 81.915348 0-212.834516-96.063607-87.485757-82.513513-237.716511 19.033272-210.990175 171.743917-383.5898 383.598108-383.5898 89.375792 0 180.255304 25.704471 245.147878 77.134183 30.689178 24.308753 55.562865 54.383151 71.725776 90.194115 28.362981 62.857152-198.391329 22.460258-177.775412 32.774446 42.046001 21.04377 256.47147 99.253819 233.786901 93.085245-295.888039-80.407474-11.306976 68.373561 10.704657 90.401811 36.708211 36.716519-5.150864 72.215939-14.779655 105.825324z" fill="#6E6E96" opacity=".2" p-id="1721"></path><path d="M520.341076 1008.285712h-0.228466c-121.090989-1.644953-236.873265-48.085804-326.028899-130.782089-89.741337-83.244603-144.768346-196.322675-154.932993-318.39399-22.422873-269.174165 178.32373-506.404667 447.502048-528.831693 111.329271-9.275708 223.431172 20.125754 315.664863 82.766901 90.883666 61.727285 159.074454 153.080344 192.015058 257.227484a16.615689 16.615689 0 1 1-31.681965 10.019261c-30.70164-97.060548-94.269113-182.207647-179.004974-239.756087-85.961268-58.387532-190.453183-85.790957-294.234777-77.142491C238.497448 84.295545 51.363249 305.433752 72.26994 556.347274c9.475097 113.796701 60.763575 219.198325 144.415262 296.78944 83.111677 77.092644 191.030578 120.388976 303.876032 121.91762a16.619843 16.619843 0 0 1-0.220158 33.231378z" fill="#6E6E96" p-id="1722"></path><path d="M1002.669609 495.255539c0-24.209059-19.814209-44.014961-44.023268-44.01496h-308.4495c-24.204905 0-44.014961 19.805901-44.014961 44.01496v460.748907c0 24.204905 19.810055 44.006653 44.014961 44.006653h308.4495c24.209059 0 44.023268-19.801748 44.023268-44.006653V495.255539z" fill="#DDDDEB" p-id="1723"></path><path d="M949.349862 439.547287H640.908671c-24.209059 0-44.019115 19.810055-44.019115 44.019115V944.311155c0 24.209059 19.805901 44.010807 44.019115 44.010806h308.449499c24.204905 0 44.014961-19.805901 44.014961-44.010806V483.558094c0-24.209059-19.805901-44.010807-44.023269-44.010807z m29.376539 488.443107c0 22.64303-18.530647 41.177832-41.173678 41.177832h-293.536919c-22.64303 0-41.169524-18.530647-41.169523-41.177832V483.483323c0-22.638876 18.526493-41.169524 41.169523-41.169523h293.536919c22.64303 0 41.173678 18.526493 41.173678 41.169523v444.507071z" fill="#6E6E96" opacity=".15" p-id="1724"></path><path d="M632.962217 981.879228V521.142783c0-33.227224 10.79189-44.019115 44.014961-44.019115h308.445346c5.998264 0 11.714061 1.221253 16.939695 3.414525-6.662891-15.855521-22.385487-27.079419-40.604591-27.07942l-308.457807 2.409275c-11.336054 0-44.006653 17.392473-44.006653 41.601532v460.740599c0 18.219103 11.211436 33.933391 27.083573 40.592128a43.416796 43.416796 0 0 1-3.414524-16.923079z" fill="#FFFFFF" opacity=".54" p-id="1725"></path><path d="M928.301938 721.536302c0-20.993923 13.919794-38.714556 33.023682-44.492661v-146.93254c-0.224312 0-0.432008 0.033231-0.648011 0.033232a36.517131 36.517131 0 0 1-36.512977-35.981275h-240.761336c-0.299082 19.918057-16.524303 35.981275-36.517131 35.981275-2.309581 0-4.565161-0.249235-6.758432-0.652166v149.748898c16.071525 7.327519 27.278808 23.490431 27.278808 42.311853 0 18.813114-11.207282 34.98018-27.278808 42.299391v150.870457a36.620979 36.620979 0 0 1 6.758432-0.648012 36.5379 36.5379 0 0 1 36.542054 36.542055c0 1.723878-0.162003 3.41037-0.394623 5.076093h241.488273a37.809001 37.809001 0 0 1-0.390469-5.076093 36.542054 36.542054 0 0 1 36.537901-36.542055c0.220158 0 0.436162 0.037385 0.656319 0.04154v-148.066561c-19.112196-5.794722-33.023682-23.523662-33.023682-44.513431z" fill="#EBEBFA" p-id="1726"></path><path d="M958.646341 1016.626788h-308.4495c-33.430767 0-60.63065-27.195729-60.63065-60.622342V495.255539c0-33.430767 27.199883-60.63065 60.63065-60.63065h308.4495c33.434921 0 60.638958 27.199883 60.638957 60.63065v460.748907c0 33.426613-27.204037 60.622342-60.638957 60.622342zM650.200995 467.856268a27.432503 27.432503 0 0 0-27.399272 27.399271v460.748907a27.424195 27.424195 0 0 0 27.399272 27.390964h308.449499c15.111969 0 27.407579-12.287302 27.40758-27.390964V495.255539a27.436657 27.436657 0 0 0-27.40758-27.399271h-308.449499z" fill="#6E6E96" p-id="1727"></path><path d="M644.082267 482.781311a9.761717 9.761717 0 1 0 0 19.527588 9.765871 9.765871 0 1 0 0-19.527588z m315.548553 0a9.761717 9.761717 0 1 0 0 19.527588 9.761717 9.761717 0 1 0 0-19.527588zM644.082267 942.902975a9.765871 9.765871 0 1 0 0 19.527589 9.765871 9.765871 0 0 0 0-19.527589z m315.548553 0a9.765871 9.765871 0 1 0 0 19.531743 9.765871 9.765871 0 0 0 0-19.531743z" fill="#6E6E96" p-id="1728"></path><path d="M934.92329 747.070463s-0.643858-50.611389 32.039203-50.61139v-20.29191c-0.004154 0.008308-64.070097 7.697218-32.039203 70.9033zM662.837226 747.070463s0.585703-50.611389-28.786681-50.61139v-20.29191c0 0.008308 57.560901 7.697218 28.786681 70.9033z" fill="#6E6E96" opacity=".15" p-id="1729"></path><path d="M654.458765 873.382932l281.976553-275.708285v-66.267522l-281.19977 275.53382z" fill="#FFFFFF" opacity=".44" p-id="1730"></path><path d="M957.292162 549.784077a33.696618 33.696618 0 0 1-12.590539-2.438352 33.9957 33.9957 0 0 0 13.192858 15.921984v-13.512709c-0.195234 0.004154-0.398777 0.029077-0.602319 0.029077z m0.606473 226.027374v-7.136439a43.840496 43.840496 0 0 1-7.0949-2.886976 42.660782 42.660782 0 0 0 7.0949 10.023415z m-277.457086-67.962323a42.810323 42.810323 0 0 1 4.710548 19.535897c0 17.458935-10.38896 32.462903-25.305695 39.250412v140.003796a34.311398 34.311398 0 0 1 6.276577-0.606472c4.436389 0 8.660928 0.880632 12.548999 2.430044v-123.0101c14.916735-6.787509 25.305695-21.787322 25.305695-39.242104 0-16.752769-9.583099-31.229188-23.536124-38.361473z m19.56082-191.450124a33.883544 33.883544 0 0 1-33.87939 33.385073 33.987392 33.987392 0 0 1-6.276577-0.602319v138.957009a43.362795 43.362795 0 0 1 18.825576 16.569996V568.007334c2.031268 0.382161 4.128999 0.606473 6.276577 0.606473 18.551417 0 33.601077-14.900119 33.87939-33.389227h210.632938a33.837851 33.837851 0 0 1-6.056419-18.825576h-223.402095z m-2.421737 410.922609c1.561875 3.896379 2.450814 8.158303 2.450814 12.627923 0 1.59926-0.153695 3.169443-0.369699 4.706394h16.083988a34.012316 34.012316 0 0 0-18.165103-17.334317z" fill="#FFFFFF" opacity=".75" p-id="1731"></path><path d="M916.035406 515.734376a33.771388 33.771388 0 0 1-3.688683-14.817041h-11.165743a33.937545 33.937545 0 0 0 14.854426 14.817041z m-267.259207 153.229886v3.696991c1.478796 0.672935 2.903592 1.458027 4.29931 2.284657-1.2711-2.114346-2.700049-4.120691-4.29931-5.981648z m283.143806 206.72825c-0.199388-0.016616-0.40293-0.045693-0.594011-0.045693a33.908468 33.908468 0 0 0-33.916776 33.912622c0 1.607568 0.153695 3.169443 0.369699 4.710548h-210.383702c1.009403 3.21929 1.566029 6.646276 1.566029 10.189571 0 1.603414-0.157849 3.173597-0.365546 4.710548h224.083338a34.481709 34.481709 0 0 1-0.361391-4.710548 33.908468 33.908468 0 0 1 33.908468-33.904314c0.207696 0 0.411238 0.024924 0.606473 0.033232v-137.395134a42.910017 42.910017 0 0 1-14.904274-7.987993v130.487161h-0.008307z m-283.143806 1.109098v14.355955a33.954161 33.954161 0 0 1 6.276577-0.606473c5.512255 0 10.712966 1.354179 15.319665 3.688683a33.987392 33.987392 0 0 0-21.596242-17.438165z m297.449914-342.499201a33.66754 33.66754 0 0 1-14.306108-3.202674v124.609361c-17.720632 5.35856-30.635177 21.8164-30.635177 41.289987 0 15.743365 8.44077 29.50531 21.047924 37.028064a42.74386 42.74386 0 0 1-6.151959-22.123791c0-19.477742 12.914544-35.931428 30.647639-41.289987v-136.340038c-0.203542 0.004154-0.40293 0.029077-0.602319 0.029078z" fill="#6E6E96" opacity=".15" p-id="1732"></path><path d="M736.029337 592.581939h130.208848v37.642843h-130.208848z" fill="#BFF2FF" p-id="1733"></path><path d="M866.234031 646.844625h-130.208848a16.615689 16.615689 0 0 1-16.615689-16.615689v-37.642844a16.615689 16.615689 0 0 1 16.615689-16.615689h130.208848a16.615689 16.615689 0 0 1 16.61569 16.615689v37.642844a16.615689 16.615689 0 0 1-16.61569 16.615689z m-113.589005-33.231378h96.97747v-4.411465h-96.97747v4.411465z" fill="#6E6E96" p-id="1734"></path><path d="M834.86361 671.485692h-98.834273a8.307845 8.307845 0 0 1 0-16.615689h98.834273a8.307845 8.307845 0 0 1 0 16.615689zM802.69979 702.860268h-66.670453a8.307845 8.307845 0 0 1 0-16.61569h66.670453a8.307845 8.307845 0 0 1 0 16.61569zM838.381982 732.66466h-102.356799a8.307845 8.307845 0 0 1 0-16.615689h102.356799a8.307845 8.307845 0 0 1 0 16.615689z" fill="#6E6E96" opacity=".35" p-id="1735"></path><path d="M673.080799 898.676164l279.434352-279.426044v36.861906l-266.494884 266.490731z" fill="#FFFFFF" opacity=".2" p-id="1736"></path><path d="M918.448835 955.888136h-224.170571a16.615689 16.615689 0 0 1-16.45784-18.916962c0.137079-0.98448 0.207696-1.777879 0.207696-2.413429a17.313548 17.313548 0 0 0-17.296932-17.292778c-0.996941 0-2.064499 0.103848-3.177751 0.315698a16.628151 16.628151 0 0 1-13.695482-3.52668 16.632305 16.632305 0 0 1-6.014879-12.798235V761.247799a16.615689 16.615689 0 0 1 9.73264-15.124431 26.585103 26.585103 0 0 0 15.577208-24.12598 26.601718 26.601718 0 0 0-15.581362-24.125981 16.623997 16.623997 0 0 1-9.728486-15.124431V543.789967c0-4.93486 2.193271-9.61633 5.989956-12.777465a16.640613 16.640613 0 0 1 13.658096-3.555757c1.158944 0.216004 2.251426 0.324006 3.235906 0.324006a17.338472 17.338472 0 0 0 17.263701-17.014466 16.615689 16.615689 0 0 1 16.615689-16.370608h223.414557a16.615689 16.615689 0 0 1 16.615689 16.366454 17.342626 17.342626 0 0 0 16.935541 17.014466l0.294928-0.016616a16.607381 16.607381 0 0 1 17.255394 16.603228v136.344191a16.615689 16.615689 0 0 1-11.809601 15.905368c-11.090973 3.352215-18.838038 13.782714-18.838038 25.372158 0 11.593597 7.751219 22.040712 18.854653 25.401235a16.615689 16.615689 0 0 1 11.801293 15.901214v137.395134a16.607381 16.607381 0 0 1-17.716478 16.578304 17.313548 17.313548 0 0 0-16.798462 17.28447c0 0.332314 0.016616 0.697859 0.054001 1.104944a16.611535 16.611535 0 0 1-16.221066 20.237909z m-208.605824-33.231378h192.962152a50.719391 50.719391 0 0 1 33.098453-36.022814v-112.409291c-18.738343-10.359882-30.655947-30.057782-30.655946-52.231419 0-22.169483 11.913449-41.859075 30.647638-52.21065v-111.39158a51.076629 51.076629 0 0 1-31.474269-30.75564h-196.202212c-5.919339 16.250144-19.988674 28.682833-37.140219 32.305053v113.281615c15.651979 11.074357 25.309849 29.226997 25.309849 48.779509 0 19.556666-9.653715 37.709307-25.309849 48.77951v114.315941a50.698622 50.698622 0 0 1 38.764403 37.559766z" fill="#6E6E96" p-id="1737"></path></svg>